G04*
G04 #@! TF.GenerationSoftware,Altium Limited,Altium Designer,23.3.1 (30)*
G04*
G04 Layer_Physical_Order=2*
G04 Layer_Color=16711680*
%FSLAX44Y44*%
%MOMM*%
G71*
G04*
G04 #@! TF.SameCoordinates,789F5575-398E-4CD6-B036-2A59C815F105*
G04*
G04*
G04 #@! TF.FilePolarity,Positive*
G04*
G01*
G75*
%ADD27R,1.6000X1.8000*%
%ADD28O,1.6000X1.8000*%
%ADD29O,1.8000X1.6000*%
G04:AMPARAMS|DCode=30|XSize=1.6mm|YSize=1.8mm|CornerRadius=0.4mm|HoleSize=0mm|Usage=FLASHONLY|Rotation=270.000|XOffset=0mm|YOffset=0mm|HoleType=Round|Shape=RoundedRectangle|*
%AMROUNDEDRECTD30*
21,1,1.6000,1.0000,0,0,270.0*
21,1,0.8000,1.8000,0,0,270.0*
1,1,0.8000,-0.5000,-0.4000*
1,1,0.8000,-0.5000,0.4000*
1,1,0.8000,0.5000,0.4000*
1,1,0.8000,0.5000,-0.4000*
%
%ADD30ROUNDEDRECTD30*%
%ADD31C,1.5748*%
%ADD32R,1.6510X1.6510*%
%ADD33C,1.6510*%
G04:AMPARAMS|DCode=34|XSize=1.4mm|YSize=1.4mm|CornerRadius=0.35mm|HoleSize=0mm|Usage=FLASHONLY|Rotation=180.000|XOffset=0mm|YOffset=0mm|HoleType=Round|Shape=RoundedRectangle|*
%AMROUNDEDRECTD34*
21,1,1.4000,0.7000,0,0,180.0*
21,1,0.7000,1.4000,0,0,180.0*
1,1,0.7000,-0.3500,0.3500*
1,1,0.7000,0.3500,0.3500*
1,1,0.7000,0.3500,-0.3500*
1,1,0.7000,-0.3500,-0.3500*
%
%ADD34ROUNDEDRECTD34*%
%ADD35C,1.4000*%
%ADD36C,1.3370*%
%ADD37R,1.3370X1.3370*%
%ADD38C,1.0160*%
G36*
X1456660Y1018905D02*
X1460181Y1017447D01*
X1463206Y1015126D01*
X1465526Y1012102D01*
X1466985Y1008579D01*
X1467449Y1005057D01*
X1467398Y1004800D01*
Y808450D01*
X1467743Y806716D01*
X1468725Y805245D01*
X1487398Y786573D01*
Y768914D01*
X1486200Y768596D01*
X1484689Y772243D01*
X1482496Y775525D01*
X1479705Y778316D01*
X1476422Y780509D01*
X1472776Y782020D01*
X1468904Y782790D01*
X1464956D01*
X1461085Y782020D01*
X1457437Y780509D01*
X1454155Y778316D01*
X1451364Y775525D01*
X1449171Y772243D01*
X1447660Y768596D01*
X1446890Y764724D01*
Y760776D01*
X1447660Y756905D01*
X1449171Y753258D01*
X1451364Y749975D01*
X1454155Y747184D01*
X1457437Y744991D01*
X1461085Y743480D01*
X1464956Y742710D01*
X1468904D01*
X1472776Y743480D01*
X1476422Y744991D01*
X1479705Y747184D01*
X1482496Y749975D01*
X1484689Y753258D01*
X1486200Y756905D01*
X1487398Y756586D01*
Y460327D01*
X1468725Y441655D01*
X1467743Y440184D01*
X1467398Y438450D01*
Y342900D01*
X1467449Y342643D01*
X1466985Y339120D01*
X1465526Y335598D01*
X1463206Y332574D01*
X1460181Y330253D01*
X1456660Y328795D01*
X1453137Y328331D01*
X1452880Y328382D01*
X607782D01*
X607782Y765919D01*
X609052Y766172D01*
X609294Y765588D01*
X610515Y763996D01*
X675976Y698535D01*
X677568Y697314D01*
X679422Y696546D01*
X681411Y696284D01*
X715642D01*
X717625Y694763D01*
X720189Y693701D01*
X722940Y693339D01*
X723702D01*
X727644Y689396D01*
Y511184D01*
X693065Y476605D01*
X691844Y475013D01*
X691076Y473159D01*
X690814Y471170D01*
Y365818D01*
X689904Y364241D01*
X689275Y361894D01*
Y359465D01*
X689904Y357119D01*
X691118Y355016D01*
X692836Y353298D01*
X694939Y352084D01*
X697286Y351455D01*
X699715D01*
X702061Y352084D01*
X704164Y353298D01*
X705882Y355016D01*
X707096Y357119D01*
X707725Y359465D01*
Y361894D01*
X707096Y364241D01*
X706186Y365818D01*
Y467986D01*
X740344Y502145D01*
X741614Y501619D01*
Y365818D01*
X740704Y364241D01*
X740075Y361894D01*
Y359465D01*
X740704Y357119D01*
X741918Y355016D01*
X743636Y353298D01*
X745739Y352084D01*
X748085Y351455D01*
X750515D01*
X752861Y352084D01*
X754964Y353298D01*
X756682Y355016D01*
X757896Y357119D01*
X758525Y359465D01*
Y361894D01*
X757896Y364241D01*
X756986Y365818D01*
Y705010D01*
X756986Y705010D01*
X756724Y706999D01*
X755956Y708853D01*
X754735Y710445D01*
X754735Y710445D01*
X735535Y729644D01*
X735252Y731793D01*
X736236Y732417D01*
X736382Y732459D01*
X767014Y701826D01*
Y428682D01*
X766367Y428034D01*
X764996Y425660D01*
X764286Y423011D01*
Y420269D01*
X764996Y417620D01*
X766367Y415246D01*
X767014Y414598D01*
Y369905D01*
X765475D01*
Y351455D01*
X783925D01*
Y369905D01*
X782386D01*
Y413954D01*
X801370D01*
X803359Y414216D01*
X805213Y414984D01*
X806805Y416205D01*
X845194Y454594D01*
X991226D01*
X1035325Y410495D01*
X1036917Y409274D01*
X1038771Y408506D01*
X1040760Y408244D01*
X1168600D01*
X1170589Y408506D01*
X1172443Y409274D01*
X1174035Y410495D01*
X1184704Y421165D01*
X1185019Y421206D01*
X1185099Y421239D01*
X1187530Y420919D01*
X1190282Y421281D01*
X1192846Y422343D01*
X1195047Y424033D01*
X1196737Y426235D01*
X1197799Y428798D01*
X1198161Y431550D01*
Y433550D01*
X1197799Y436301D01*
X1196737Y438866D01*
X1195047Y441067D01*
X1192846Y442757D01*
X1190282Y443819D01*
X1187530Y444181D01*
X1184779Y443819D01*
X1182215Y442757D01*
X1180013Y441067D01*
X1178323Y438866D01*
X1177261Y436301D01*
X1177091Y435005D01*
X1175865Y434065D01*
X1174031Y432230D01*
X1172761Y432756D01*
Y433550D01*
X1172399Y436301D01*
X1171337Y438866D01*
X1169647Y441067D01*
X1167446Y442757D01*
X1164882Y443819D01*
X1162130Y444181D01*
X1159379Y443819D01*
X1156815Y442757D01*
X1154613Y441067D01*
X1152923Y438866D01*
X1151861Y436301D01*
X1151499Y433550D01*
Y431550D01*
X1151861Y428798D01*
X1152923Y426235D01*
X1153958Y424886D01*
X1153332Y423616D01*
X1145528D01*
X1144902Y424886D01*
X1145937Y426235D01*
X1146999Y428798D01*
X1147361Y431550D01*
Y433550D01*
X1146999Y436301D01*
X1145937Y438866D01*
X1144247Y441067D01*
X1142046Y442757D01*
X1139482Y443819D01*
X1136730Y444181D01*
X1133979Y443819D01*
X1131415Y442757D01*
X1129213Y441067D01*
X1127523Y438866D01*
X1126461Y436301D01*
X1126099Y433550D01*
Y431550D01*
X1126461Y428798D01*
X1127523Y426235D01*
X1128558Y424886D01*
X1127932Y423616D01*
X1120128D01*
X1119502Y424886D01*
X1120537Y426235D01*
X1121599Y428798D01*
X1121961Y431550D01*
Y433550D01*
X1121599Y436301D01*
X1120537Y438866D01*
X1118847Y441067D01*
X1116646Y442757D01*
X1114081Y443819D01*
X1111330Y444181D01*
X1108578Y443819D01*
X1106015Y442757D01*
X1103813Y441067D01*
X1102123Y438866D01*
X1101061Y436301D01*
X1100699Y433550D01*
Y431550D01*
X1101061Y428798D01*
X1102123Y426235D01*
X1103158Y424886D01*
X1102532Y423616D01*
X1096470D01*
Y444090D01*
X1075390D01*
Y423616D01*
X1043944D01*
X999845Y467715D01*
X998253Y468936D01*
X996399Y469704D01*
X994410Y469966D01*
X842010D01*
X842010Y469966D01*
X840021Y469704D01*
X838167Y468936D01*
X836575Y467715D01*
X798186Y429326D01*
X782386D01*
Y705010D01*
X782124Y706999D01*
X781356Y708853D01*
X780135Y710445D01*
X735535Y755044D01*
X735209Y757522D01*
X734147Y760086D01*
X732457Y762287D01*
X730256Y763977D01*
X727691Y765039D01*
X724940Y765401D01*
X722940D01*
X720189Y765039D01*
X717625Y763977D01*
X717099Y763573D01*
X715816D01*
X713806Y765583D01*
Y770265D01*
X715076Y770892D01*
X715642Y770457D01*
X717233Y769798D01*
X718940Y769574D01*
X722670D01*
Y780170D01*
Y790766D01*
X718940D01*
X717233Y790542D01*
X715642Y789883D01*
X715076Y789448D01*
X713806Y790075D01*
Y822316D01*
X730893Y839404D01*
X751246D01*
X753235Y839666D01*
X755089Y840434D01*
X756681Y841655D01*
X782613Y867588D01*
X783961Y867140D01*
X784554Y865709D01*
X785775Y864117D01*
X791727Y858165D01*
X791727Y858165D01*
X793319Y856944D01*
X795172Y856176D01*
X797162Y855914D01*
X847090D01*
X849079Y856176D01*
X850933Y856944D01*
X852525Y858165D01*
X858875Y864515D01*
X858875Y864515D01*
X860096Y866107D01*
X860864Y867961D01*
X861126Y869950D01*
Y880044D01*
X892118D01*
X892766Y879397D01*
X895140Y878026D01*
X897789Y877316D01*
X900531D01*
X903180Y878026D01*
X905554Y879397D01*
X907493Y881336D01*
X908864Y883710D01*
X909574Y886359D01*
Y889101D01*
X908864Y891750D01*
X907493Y894124D01*
X905554Y896063D01*
X903180Y897434D01*
X900531Y898144D01*
X897789D01*
X895140Y897434D01*
X892766Y896063D01*
X892118Y895416D01*
X860482D01*
X859834Y896063D01*
X857460Y897434D01*
X854811Y898144D01*
X852069D01*
X849420Y897434D01*
X847046Y896063D01*
X845107Y894124D01*
X843736Y891750D01*
X843026Y889101D01*
Y886359D01*
X843736Y883710D01*
X845107Y881336D01*
X845754Y880688D01*
Y873133D01*
X843906Y871286D01*
X800345D01*
X798896Y872735D01*
Y881962D01*
X800100Y884048D01*
X800282Y884726D01*
X801552Y884559D01*
Y884230D01*
X802020Y881873D01*
X803355Y879875D01*
X805353Y878540D01*
X807710Y878072D01*
X809940D01*
Y887730D01*
Y897388D01*
X807710D01*
X805353Y896919D01*
X803355Y895585D01*
X802020Y893587D01*
X801552Y891230D01*
Y890901D01*
X800282Y890734D01*
X800100Y891412D01*
X798844Y893588D01*
X798736Y893696D01*
Y957169D01*
X799780Y958978D01*
X799962Y959656D01*
X801232Y959489D01*
Y959160D01*
X801701Y956803D01*
X803035Y954805D01*
X805033Y953471D01*
X807390Y953002D01*
X809620D01*
Y962660D01*
X810890D01*
Y963930D01*
X820548D01*
Y966160D01*
X820118Y968324D01*
X820676Y969594D01*
X841511D01*
X843613Y967492D01*
X843026Y965301D01*
Y962559D01*
X843736Y959910D01*
X845107Y957536D01*
X847046Y955597D01*
X849420Y954226D01*
X852069Y953516D01*
X852985D01*
X921905Y884595D01*
X923497Y883374D01*
X925351Y882606D01*
X927340Y882344D01*
X995810D01*
X997799Y882606D01*
X999653Y883374D01*
X1001245Y884595D01*
X1020204Y903555D01*
X1022682Y903881D01*
X1025245Y904943D01*
X1027447Y906633D01*
X1029137Y908835D01*
X1030199Y911398D01*
X1030561Y914150D01*
Y916150D01*
X1030199Y918902D01*
X1029137Y921466D01*
X1027447Y923667D01*
X1025245Y925357D01*
X1022682Y926419D01*
X1019930Y926781D01*
X1017178Y926419D01*
X1014614Y925357D01*
X1012413Y923667D01*
X1010723Y921466D01*
X1009661Y918902D01*
X1009299Y916150D01*
Y914388D01*
X1005972Y911061D01*
X1005826Y911104D01*
X1004842Y911727D01*
X1005161Y914150D01*
Y916150D01*
X1004799Y918902D01*
X1003737Y921466D01*
X1002047Y923667D01*
X999845Y925357D01*
X997281Y926419D01*
X994805Y926745D01*
X952185Y969365D01*
X950593Y970586D01*
X948739Y971354D01*
X946750Y971616D01*
X906202D01*
X905554Y972263D01*
X903180Y973634D01*
X900531Y974344D01*
X897789D01*
X895140Y973634D01*
X894402Y973208D01*
X869035Y998575D01*
X867443Y999796D01*
X865589Y1000564D01*
X863600Y1000826D01*
X780694D01*
X780694Y1000826D01*
X778705Y1000564D01*
X776851Y999796D01*
X775259Y998575D01*
X748611Y971926D01*
X747208Y971550D01*
X745032Y970294D01*
X743256Y968518D01*
X742000Y966342D01*
X741350Y963916D01*
Y961404D01*
X742000Y958978D01*
X743256Y956802D01*
X743364Y956694D01*
Y893221D01*
X742320Y891412D01*
X742077Y890506D01*
X734287Y882716D01*
X643710D01*
X643709Y882716D01*
X641720Y882454D01*
X639867Y881686D01*
X638275Y880465D01*
X638275Y880465D01*
X610515Y852705D01*
X609294Y851113D01*
X609052Y850529D01*
X607782Y850782D01*
Y1019318D01*
X1452880D01*
X1453137Y1019369D01*
X1456660Y1018905D01*
D02*
G37*
%LPC*%
G36*
X1441530Y1002981D02*
X1438779Y1002619D01*
X1436215Y1001557D01*
X1434013Y999867D01*
X1432323Y997665D01*
X1431261Y995101D01*
X1430899Y992350D01*
Y990350D01*
X1431261Y987598D01*
X1432323Y985035D01*
X1434013Y982833D01*
X1436215Y981143D01*
X1438779Y980081D01*
X1441530Y979719D01*
X1444281Y980081D01*
X1446846Y981143D01*
X1449047Y982833D01*
X1450737Y985035D01*
X1451799Y987598D01*
X1452161Y990350D01*
Y992350D01*
X1451799Y995101D01*
X1450737Y997665D01*
X1449047Y999867D01*
X1446846Y1001557D01*
X1444281Y1002619D01*
X1441530Y1002981D01*
D02*
G37*
G36*
X1416130D02*
X1413378Y1002619D01*
X1410815Y1001557D01*
X1408613Y999867D01*
X1406923Y997665D01*
X1405861Y995101D01*
X1405499Y992350D01*
Y990350D01*
X1405861Y987598D01*
X1406923Y985035D01*
X1408613Y982833D01*
X1410815Y981143D01*
X1413378Y980081D01*
X1416130Y979719D01*
X1418882Y980081D01*
X1421445Y981143D01*
X1423647Y982833D01*
X1425337Y985035D01*
X1426399Y987598D01*
X1426761Y990350D01*
Y992350D01*
X1426399Y995101D01*
X1425337Y997665D01*
X1423647Y999867D01*
X1421445Y1001557D01*
X1418882Y1002619D01*
X1416130Y1002981D01*
D02*
G37*
G36*
X1390730D02*
X1387979Y1002619D01*
X1385415Y1001557D01*
X1383213Y999867D01*
X1381523Y997665D01*
X1380461Y995101D01*
X1380099Y992350D01*
Y990350D01*
X1380461Y987598D01*
X1381523Y985035D01*
X1383213Y982833D01*
X1385415Y981143D01*
X1387979Y980081D01*
X1390730Y979719D01*
X1393481Y980081D01*
X1396046Y981143D01*
X1398247Y982833D01*
X1399937Y985035D01*
X1400999Y987598D01*
X1401361Y990350D01*
Y992350D01*
X1400999Y995101D01*
X1399937Y997665D01*
X1398247Y999867D01*
X1396046Y1001557D01*
X1393481Y1002619D01*
X1390730Y1002981D01*
D02*
G37*
G36*
X1365330D02*
X1362578Y1002619D01*
X1360015Y1001557D01*
X1357813Y999867D01*
X1356123Y997665D01*
X1355061Y995101D01*
X1354699Y992350D01*
Y990350D01*
X1355061Y987598D01*
X1356123Y985035D01*
X1357813Y982833D01*
X1360015Y981143D01*
X1362578Y980081D01*
X1365330Y979719D01*
X1368082Y980081D01*
X1370645Y981143D01*
X1372847Y982833D01*
X1374537Y985035D01*
X1375599Y987598D01*
X1375961Y990350D01*
Y992350D01*
X1375599Y995101D01*
X1374537Y997665D01*
X1372847Y999867D01*
X1370645Y1001557D01*
X1368082Y1002619D01*
X1365330Y1002981D01*
D02*
G37*
G36*
X1339930D02*
X1337178Y1002619D01*
X1334615Y1001557D01*
X1332413Y999867D01*
X1330723Y997665D01*
X1329661Y995101D01*
X1329299Y992350D01*
Y990350D01*
X1329661Y987598D01*
X1330723Y985035D01*
X1332413Y982833D01*
X1334615Y981143D01*
X1337178Y980081D01*
X1339930Y979719D01*
X1342681Y980081D01*
X1345246Y981143D01*
X1347447Y982833D01*
X1349137Y985035D01*
X1350199Y987598D01*
X1350561Y990350D01*
Y992350D01*
X1350199Y995101D01*
X1349137Y997665D01*
X1347447Y999867D01*
X1345246Y1001557D01*
X1342681Y1002619D01*
X1339930Y1002981D01*
D02*
G37*
G36*
X1314530D02*
X1311779Y1002619D01*
X1309215Y1001557D01*
X1307013Y999867D01*
X1305323Y997665D01*
X1304261Y995101D01*
X1303899Y992350D01*
Y990350D01*
X1304261Y987598D01*
X1305323Y985035D01*
X1307013Y982833D01*
X1309215Y981143D01*
X1311779Y980081D01*
X1314530Y979719D01*
X1317281Y980081D01*
X1319845Y981143D01*
X1322047Y982833D01*
X1323737Y985035D01*
X1324799Y987598D01*
X1325161Y990350D01*
Y992350D01*
X1324799Y995101D01*
X1323737Y997665D01*
X1322047Y999867D01*
X1319845Y1001557D01*
X1317281Y1002619D01*
X1314530Y1002981D01*
D02*
G37*
G36*
X1289130D02*
X1286378Y1002619D01*
X1283815Y1001557D01*
X1281613Y999867D01*
X1279923Y997665D01*
X1278861Y995101D01*
X1278499Y992350D01*
Y990350D01*
X1278861Y987598D01*
X1279923Y985035D01*
X1281613Y982833D01*
X1283815Y981143D01*
X1286378Y980081D01*
X1289130Y979719D01*
X1291882Y980081D01*
X1294445Y981143D01*
X1296647Y982833D01*
X1298337Y985035D01*
X1299399Y987598D01*
X1299761Y990350D01*
Y992350D01*
X1299399Y995101D01*
X1298337Y997665D01*
X1296647Y999867D01*
X1294445Y1001557D01*
X1291882Y1002619D01*
X1289130Y1002981D01*
D02*
G37*
G36*
X1263730D02*
X1260978Y1002619D01*
X1258415Y1001557D01*
X1256213Y999867D01*
X1254523Y997665D01*
X1253461Y995101D01*
X1253099Y992350D01*
Y990350D01*
X1253461Y987598D01*
X1254523Y985035D01*
X1256213Y982833D01*
X1258415Y981143D01*
X1260978Y980081D01*
X1263730Y979719D01*
X1266481Y980081D01*
X1269045Y981143D01*
X1271247Y982833D01*
X1272937Y985035D01*
X1273999Y987598D01*
X1274361Y990350D01*
Y992350D01*
X1273999Y995101D01*
X1272937Y997665D01*
X1271247Y999867D01*
X1269045Y1001557D01*
X1266481Y1002619D01*
X1263730Y1002981D01*
D02*
G37*
G36*
X1238330D02*
X1235579Y1002619D01*
X1233015Y1001557D01*
X1230813Y999867D01*
X1229123Y997665D01*
X1228061Y995101D01*
X1227699Y992350D01*
Y990350D01*
X1228061Y987598D01*
X1229123Y985035D01*
X1230813Y982833D01*
X1233015Y981143D01*
X1235579Y980081D01*
X1238330Y979719D01*
X1241081Y980081D01*
X1243645Y981143D01*
X1245847Y982833D01*
X1247537Y985035D01*
X1248599Y987598D01*
X1248961Y990350D01*
Y992350D01*
X1248599Y995101D01*
X1247537Y997665D01*
X1245847Y999867D01*
X1243645Y1001557D01*
X1241081Y1002619D01*
X1238330Y1002981D01*
D02*
G37*
G36*
X1212930D02*
X1210179Y1002619D01*
X1207615Y1001557D01*
X1205413Y999867D01*
X1203723Y997665D01*
X1202661Y995101D01*
X1202299Y992350D01*
Y990350D01*
X1202661Y987598D01*
X1203723Y985035D01*
X1205413Y982833D01*
X1207615Y981143D01*
X1210179Y980081D01*
X1212930Y979719D01*
X1215682Y980081D01*
X1218245Y981143D01*
X1220447Y982833D01*
X1222137Y985035D01*
X1223199Y987598D01*
X1223561Y990350D01*
Y992350D01*
X1223199Y995101D01*
X1222137Y997665D01*
X1220447Y999867D01*
X1218245Y1001557D01*
X1215682Y1002619D01*
X1212930Y1002981D01*
D02*
G37*
G36*
X1187530D02*
X1184779Y1002619D01*
X1182215Y1001557D01*
X1180013Y999867D01*
X1178323Y997665D01*
X1177261Y995101D01*
X1176899Y992350D01*
Y990350D01*
X1177261Y987598D01*
X1178323Y985035D01*
X1180013Y982833D01*
X1182215Y981143D01*
X1184779Y980081D01*
X1187530Y979719D01*
X1190282Y980081D01*
X1192846Y981143D01*
X1195047Y982833D01*
X1196737Y985035D01*
X1197799Y987598D01*
X1198161Y990350D01*
Y992350D01*
X1197799Y995101D01*
X1196737Y997665D01*
X1195047Y999867D01*
X1192846Y1001557D01*
X1190282Y1002619D01*
X1187530Y1002981D01*
D02*
G37*
G36*
X1162130D02*
X1159379Y1002619D01*
X1156815Y1001557D01*
X1154613Y999867D01*
X1152923Y997665D01*
X1151861Y995101D01*
X1151499Y992350D01*
Y990350D01*
X1151861Y987598D01*
X1152923Y985035D01*
X1154613Y982833D01*
X1156815Y981143D01*
X1159379Y980081D01*
X1162130Y979719D01*
X1164882Y980081D01*
X1167446Y981143D01*
X1169647Y982833D01*
X1171337Y985035D01*
X1172399Y987598D01*
X1172761Y990350D01*
Y992350D01*
X1172399Y995101D01*
X1171337Y997665D01*
X1169647Y999867D01*
X1167446Y1001557D01*
X1164882Y1002619D01*
X1162130Y1002981D01*
D02*
G37*
G36*
X1136730D02*
X1133979Y1002619D01*
X1131415Y1001557D01*
X1129213Y999867D01*
X1127523Y997665D01*
X1126461Y995101D01*
X1126099Y992350D01*
Y990350D01*
X1126461Y987598D01*
X1127523Y985035D01*
X1129213Y982833D01*
X1131415Y981143D01*
X1133979Y980081D01*
X1136730Y979719D01*
X1139482Y980081D01*
X1142046Y981143D01*
X1144247Y982833D01*
X1145937Y985035D01*
X1146999Y987598D01*
X1147361Y990350D01*
Y992350D01*
X1146999Y995101D01*
X1145937Y997665D01*
X1144247Y999867D01*
X1142046Y1001557D01*
X1139482Y1002619D01*
X1136730Y1002981D01*
D02*
G37*
G36*
X1111330D02*
X1108578Y1002619D01*
X1106015Y1001557D01*
X1103813Y999867D01*
X1102123Y997665D01*
X1101061Y995101D01*
X1100699Y992350D01*
Y990350D01*
X1101061Y987598D01*
X1102123Y985035D01*
X1103813Y982833D01*
X1106015Y981143D01*
X1108578Y980081D01*
X1111330Y979719D01*
X1114081Y980081D01*
X1116646Y981143D01*
X1118847Y982833D01*
X1120537Y985035D01*
X1121599Y987598D01*
X1121961Y990350D01*
Y992350D01*
X1121599Y995101D01*
X1120537Y997665D01*
X1118847Y999867D01*
X1116646Y1001557D01*
X1114081Y1002619D01*
X1111330Y1002981D01*
D02*
G37*
G36*
X1085930D02*
X1083178Y1002619D01*
X1080615Y1001557D01*
X1078413Y999867D01*
X1076723Y997665D01*
X1075661Y995101D01*
X1075299Y992350D01*
Y990350D01*
X1075661Y987598D01*
X1076723Y985035D01*
X1078413Y982833D01*
X1080615Y981143D01*
X1083178Y980081D01*
X1085930Y979719D01*
X1088681Y980081D01*
X1091245Y981143D01*
X1093447Y982833D01*
X1095137Y985035D01*
X1096199Y987598D01*
X1096561Y990350D01*
Y992350D01*
X1096199Y995101D01*
X1095137Y997665D01*
X1093447Y999867D01*
X1091245Y1001557D01*
X1088681Y1002619D01*
X1085930Y1002981D01*
D02*
G37*
G36*
X1060530D02*
X1057778Y1002619D01*
X1055215Y1001557D01*
X1053013Y999867D01*
X1051323Y997665D01*
X1050261Y995101D01*
X1049899Y992350D01*
Y990350D01*
X1050261Y987598D01*
X1051323Y985035D01*
X1053013Y982833D01*
X1055215Y981143D01*
X1057778Y980081D01*
X1060530Y979719D01*
X1063281Y980081D01*
X1065845Y981143D01*
X1068047Y982833D01*
X1069737Y985035D01*
X1070799Y987598D01*
X1071161Y990350D01*
Y992350D01*
X1070799Y995101D01*
X1069737Y997665D01*
X1068047Y999867D01*
X1065845Y1001557D01*
X1063281Y1002619D01*
X1060530Y1002981D01*
D02*
G37*
G36*
X1035130D02*
X1032378Y1002619D01*
X1029815Y1001557D01*
X1027613Y999867D01*
X1025923Y997665D01*
X1024861Y995101D01*
X1024499Y992350D01*
Y990350D01*
X1024861Y987598D01*
X1025923Y985035D01*
X1027613Y982833D01*
X1029815Y981143D01*
X1032378Y980081D01*
X1035130Y979719D01*
X1037881Y980081D01*
X1040445Y981143D01*
X1042647Y982833D01*
X1044337Y985035D01*
X1045399Y987598D01*
X1045761Y990350D01*
Y992350D01*
X1045399Y995101D01*
X1044337Y997665D01*
X1042647Y999867D01*
X1040445Y1001557D01*
X1037881Y1002619D01*
X1035130Y1002981D01*
D02*
G37*
G36*
X1009730D02*
X1006979Y1002619D01*
X1004415Y1001557D01*
X1002213Y999867D01*
X1000523Y997665D01*
X999461Y995101D01*
X999099Y992350D01*
Y990350D01*
X999461Y987598D01*
X1000523Y985035D01*
X1002213Y982833D01*
X1004415Y981143D01*
X1006979Y980081D01*
X1009730Y979719D01*
X1012482Y980081D01*
X1015045Y981143D01*
X1017247Y982833D01*
X1018937Y985035D01*
X1019999Y987598D01*
X1020361Y990350D01*
Y992350D01*
X1019999Y995101D01*
X1018937Y997665D01*
X1017247Y999867D01*
X1015045Y1001557D01*
X1012482Y1002619D01*
X1009730Y1002981D01*
D02*
G37*
G36*
X984330D02*
X981579Y1002619D01*
X979015Y1001557D01*
X976813Y999867D01*
X975123Y997665D01*
X974061Y995101D01*
X973699Y992350D01*
Y990350D01*
X974061Y987598D01*
X975123Y985035D01*
X976813Y982833D01*
X979015Y981143D01*
X981579Y980081D01*
X984330Y979719D01*
X987082Y980081D01*
X989645Y981143D01*
X991847Y982833D01*
X993537Y985035D01*
X994599Y987598D01*
X994961Y990350D01*
Y992350D01*
X994599Y995101D01*
X993537Y997665D01*
X991847Y999867D01*
X989645Y1001557D01*
X987082Y1002619D01*
X984330Y1002981D01*
D02*
G37*
G36*
X994870Y977490D02*
X973790D01*
Y954410D01*
X994870D01*
Y977490D01*
D02*
G37*
G36*
X1441530Y977581D02*
X1438779Y977219D01*
X1436215Y976157D01*
X1434013Y974467D01*
X1432323Y972265D01*
X1431261Y969702D01*
X1430899Y966950D01*
Y964950D01*
X1431261Y962198D01*
X1432323Y959635D01*
X1434013Y957433D01*
X1436215Y955743D01*
X1438779Y954681D01*
X1441530Y954319D01*
X1444281Y954681D01*
X1446846Y955743D01*
X1449047Y957433D01*
X1450737Y959635D01*
X1451799Y962198D01*
X1452161Y964950D01*
Y966950D01*
X1451799Y969702D01*
X1450737Y972265D01*
X1449047Y974467D01*
X1446846Y976157D01*
X1444281Y977219D01*
X1441530Y977581D01*
D02*
G37*
G36*
X1416130D02*
X1413378Y977219D01*
X1410815Y976157D01*
X1408613Y974467D01*
X1406923Y972265D01*
X1405861Y969702D01*
X1405499Y966950D01*
Y964950D01*
X1405861Y962198D01*
X1406923Y959635D01*
X1408613Y957433D01*
X1410815Y955743D01*
X1413378Y954681D01*
X1416130Y954319D01*
X1418882Y954681D01*
X1421445Y955743D01*
X1423647Y957433D01*
X1425337Y959635D01*
X1426399Y962198D01*
X1426761Y964950D01*
Y966950D01*
X1426399Y969702D01*
X1425337Y972265D01*
X1423647Y974467D01*
X1421445Y976157D01*
X1418882Y977219D01*
X1416130Y977581D01*
D02*
G37*
G36*
X1390730D02*
X1387979Y977219D01*
X1385415Y976157D01*
X1383213Y974467D01*
X1381523Y972265D01*
X1380461Y969702D01*
X1380099Y966950D01*
Y964950D01*
X1380461Y962198D01*
X1381523Y959635D01*
X1383213Y957433D01*
X1385415Y955743D01*
X1387979Y954681D01*
X1390730Y954319D01*
X1393481Y954681D01*
X1396046Y955743D01*
X1398247Y957433D01*
X1399937Y959635D01*
X1400999Y962198D01*
X1401361Y964950D01*
Y966950D01*
X1400999Y969702D01*
X1399937Y972265D01*
X1398247Y974467D01*
X1396046Y976157D01*
X1393481Y977219D01*
X1390730Y977581D01*
D02*
G37*
G36*
X1365330D02*
X1362578Y977219D01*
X1360015Y976157D01*
X1357813Y974467D01*
X1356123Y972265D01*
X1355061Y969702D01*
X1354699Y966950D01*
Y964950D01*
X1355061Y962198D01*
X1356123Y959635D01*
X1357813Y957433D01*
X1360015Y955743D01*
X1362578Y954681D01*
X1365330Y954319D01*
X1368082Y954681D01*
X1370645Y955743D01*
X1372847Y957433D01*
X1374537Y959635D01*
X1375599Y962198D01*
X1375961Y964950D01*
Y966950D01*
X1375599Y969702D01*
X1374537Y972265D01*
X1372847Y974467D01*
X1370645Y976157D01*
X1368082Y977219D01*
X1365330Y977581D01*
D02*
G37*
G36*
X1339930D02*
X1337178Y977219D01*
X1334615Y976157D01*
X1332413Y974467D01*
X1330723Y972265D01*
X1329661Y969702D01*
X1329299Y966950D01*
Y964950D01*
X1329661Y962198D01*
X1330723Y959635D01*
X1332413Y957433D01*
X1334615Y955743D01*
X1337178Y954681D01*
X1339930Y954319D01*
X1342681Y954681D01*
X1345246Y955743D01*
X1347447Y957433D01*
X1349137Y959635D01*
X1350199Y962198D01*
X1350561Y964950D01*
Y966950D01*
X1350199Y969702D01*
X1349137Y972265D01*
X1347447Y974467D01*
X1345246Y976157D01*
X1342681Y977219D01*
X1339930Y977581D01*
D02*
G37*
G36*
X1314530D02*
X1311779Y977219D01*
X1309215Y976157D01*
X1307013Y974467D01*
X1305323Y972265D01*
X1304261Y969702D01*
X1303899Y966950D01*
Y964950D01*
X1304261Y962198D01*
X1305323Y959635D01*
X1307013Y957433D01*
X1309215Y955743D01*
X1311779Y954681D01*
X1314530Y954319D01*
X1317281Y954681D01*
X1319845Y955743D01*
X1322047Y957433D01*
X1323737Y959635D01*
X1324799Y962198D01*
X1325161Y964950D01*
Y966950D01*
X1324799Y969702D01*
X1323737Y972265D01*
X1322047Y974467D01*
X1319845Y976157D01*
X1317281Y977219D01*
X1314530Y977581D01*
D02*
G37*
G36*
X1289130D02*
X1286378Y977219D01*
X1283815Y976157D01*
X1281613Y974467D01*
X1279923Y972265D01*
X1278861Y969702D01*
X1278499Y966950D01*
Y964950D01*
X1278861Y962198D01*
X1279923Y959635D01*
X1281613Y957433D01*
X1283815Y955743D01*
X1286378Y954681D01*
X1289130Y954319D01*
X1291882Y954681D01*
X1294445Y955743D01*
X1296647Y957433D01*
X1298337Y959635D01*
X1299399Y962198D01*
X1299761Y964950D01*
Y966950D01*
X1299399Y969702D01*
X1298337Y972265D01*
X1296647Y974467D01*
X1294445Y976157D01*
X1291882Y977219D01*
X1289130Y977581D01*
D02*
G37*
G36*
X1263730D02*
X1260978Y977219D01*
X1258415Y976157D01*
X1256213Y974467D01*
X1254523Y972265D01*
X1253461Y969702D01*
X1253099Y966950D01*
Y964950D01*
X1253461Y962198D01*
X1254523Y959635D01*
X1256213Y957433D01*
X1258415Y955743D01*
X1260978Y954681D01*
X1263730Y954319D01*
X1266481Y954681D01*
X1269045Y955743D01*
X1271247Y957433D01*
X1272937Y959635D01*
X1273999Y962198D01*
X1274361Y964950D01*
Y966950D01*
X1273999Y969702D01*
X1272937Y972265D01*
X1271247Y974467D01*
X1269045Y976157D01*
X1266481Y977219D01*
X1263730Y977581D01*
D02*
G37*
G36*
X1238330D02*
X1235579Y977219D01*
X1233015Y976157D01*
X1230813Y974467D01*
X1229123Y972265D01*
X1228061Y969702D01*
X1227699Y966950D01*
Y964950D01*
X1228061Y962198D01*
X1229123Y959635D01*
X1230813Y957433D01*
X1233015Y955743D01*
X1235579Y954681D01*
X1238330Y954319D01*
X1241081Y954681D01*
X1243645Y955743D01*
X1245847Y957433D01*
X1247537Y959635D01*
X1248599Y962198D01*
X1248961Y964950D01*
Y966950D01*
X1248599Y969702D01*
X1247537Y972265D01*
X1245847Y974467D01*
X1243645Y976157D01*
X1241081Y977219D01*
X1238330Y977581D01*
D02*
G37*
G36*
X1212930D02*
X1210179Y977219D01*
X1207615Y976157D01*
X1205413Y974467D01*
X1203723Y972265D01*
X1202661Y969702D01*
X1202299Y966950D01*
Y964950D01*
X1202661Y962198D01*
X1203723Y959635D01*
X1205413Y957433D01*
X1207615Y955743D01*
X1210179Y954681D01*
X1212930Y954319D01*
X1215682Y954681D01*
X1218245Y955743D01*
X1220447Y957433D01*
X1222137Y959635D01*
X1223199Y962198D01*
X1223561Y964950D01*
Y966950D01*
X1223199Y969702D01*
X1222137Y972265D01*
X1220447Y974467D01*
X1218245Y976157D01*
X1215682Y977219D01*
X1212930Y977581D01*
D02*
G37*
G36*
X1187530D02*
X1184779Y977219D01*
X1182215Y976157D01*
X1180013Y974467D01*
X1178323Y972265D01*
X1177261Y969702D01*
X1176899Y966950D01*
Y964950D01*
X1177261Y962198D01*
X1178323Y959635D01*
X1180013Y957433D01*
X1182215Y955743D01*
X1184779Y954681D01*
X1187530Y954319D01*
X1190282Y954681D01*
X1192846Y955743D01*
X1195047Y957433D01*
X1196737Y959635D01*
X1197799Y962198D01*
X1198161Y964950D01*
Y966950D01*
X1197799Y969702D01*
X1196737Y972265D01*
X1195047Y974467D01*
X1192846Y976157D01*
X1190282Y977219D01*
X1187530Y977581D01*
D02*
G37*
G36*
X1162130D02*
X1159379Y977219D01*
X1156815Y976157D01*
X1154613Y974467D01*
X1152923Y972265D01*
X1151861Y969702D01*
X1151499Y966950D01*
Y964950D01*
X1151861Y962198D01*
X1152923Y959635D01*
X1154613Y957433D01*
X1156815Y955743D01*
X1159379Y954681D01*
X1162130Y954319D01*
X1164882Y954681D01*
X1167446Y955743D01*
X1169647Y957433D01*
X1171337Y959635D01*
X1172399Y962198D01*
X1172761Y964950D01*
Y966950D01*
X1172399Y969702D01*
X1171337Y972265D01*
X1169647Y974467D01*
X1167446Y976157D01*
X1164882Y977219D01*
X1162130Y977581D01*
D02*
G37*
G36*
X1136730D02*
X1133979Y977219D01*
X1131415Y976157D01*
X1129213Y974467D01*
X1127523Y972265D01*
X1126461Y969702D01*
X1126099Y966950D01*
Y964950D01*
X1126461Y962198D01*
X1127523Y959635D01*
X1129213Y957433D01*
X1131415Y955743D01*
X1133979Y954681D01*
X1136730Y954319D01*
X1139482Y954681D01*
X1142046Y955743D01*
X1144247Y957433D01*
X1145937Y959635D01*
X1146999Y962198D01*
X1147361Y964950D01*
Y966950D01*
X1146999Y969702D01*
X1145937Y972265D01*
X1144247Y974467D01*
X1142046Y976157D01*
X1139482Y977219D01*
X1136730Y977581D01*
D02*
G37*
G36*
X1111330D02*
X1108578Y977219D01*
X1106015Y976157D01*
X1103813Y974467D01*
X1102123Y972265D01*
X1101061Y969702D01*
X1100699Y966950D01*
Y964950D01*
X1101061Y962198D01*
X1102123Y959635D01*
X1103813Y957433D01*
X1106015Y955743D01*
X1108578Y954681D01*
X1111330Y954319D01*
X1114081Y954681D01*
X1116646Y955743D01*
X1118847Y957433D01*
X1120537Y959635D01*
X1121599Y962198D01*
X1121961Y964950D01*
Y966950D01*
X1121599Y969702D01*
X1120537Y972265D01*
X1118847Y974467D01*
X1116646Y976157D01*
X1114081Y977219D01*
X1111330Y977581D01*
D02*
G37*
G36*
X1085930D02*
X1083178Y977219D01*
X1080615Y976157D01*
X1078413Y974467D01*
X1076723Y972265D01*
X1075661Y969702D01*
X1075299Y966950D01*
Y964950D01*
X1075661Y962198D01*
X1076723Y959635D01*
X1078413Y957433D01*
X1080615Y955743D01*
X1083178Y954681D01*
X1085930Y954319D01*
X1088681Y954681D01*
X1091245Y955743D01*
X1093447Y957433D01*
X1095137Y959635D01*
X1096199Y962198D01*
X1096561Y964950D01*
Y966950D01*
X1096199Y969702D01*
X1095137Y972265D01*
X1093447Y974467D01*
X1091245Y976157D01*
X1088681Y977219D01*
X1085930Y977581D01*
D02*
G37*
G36*
X1060530D02*
X1057778Y977219D01*
X1055215Y976157D01*
X1053013Y974467D01*
X1051323Y972265D01*
X1050261Y969702D01*
X1049899Y966950D01*
Y964950D01*
X1050261Y962198D01*
X1051323Y959635D01*
X1053013Y957433D01*
X1055215Y955743D01*
X1057778Y954681D01*
X1060530Y954319D01*
X1063281Y954681D01*
X1065845Y955743D01*
X1068047Y957433D01*
X1069737Y959635D01*
X1070799Y962198D01*
X1071161Y964950D01*
Y966950D01*
X1070799Y969702D01*
X1069737Y972265D01*
X1068047Y974467D01*
X1065845Y976157D01*
X1063281Y977219D01*
X1060530Y977581D01*
D02*
G37*
G36*
X1035130D02*
X1032378Y977219D01*
X1029815Y976157D01*
X1027613Y974467D01*
X1025923Y972265D01*
X1024861Y969702D01*
X1024499Y966950D01*
Y964950D01*
X1024861Y962198D01*
X1025923Y959635D01*
X1027613Y957433D01*
X1029815Y955743D01*
X1032378Y954681D01*
X1035130Y954319D01*
X1037881Y954681D01*
X1040445Y955743D01*
X1042647Y957433D01*
X1044337Y959635D01*
X1045399Y962198D01*
X1045761Y964950D01*
Y966950D01*
X1045399Y969702D01*
X1044337Y972265D01*
X1042647Y974467D01*
X1040445Y976157D01*
X1037881Y977219D01*
X1035130Y977581D01*
D02*
G37*
G36*
X1009730D02*
X1006979Y977219D01*
X1004415Y976157D01*
X1002213Y974467D01*
X1000523Y972265D01*
X999461Y969702D01*
X999099Y966950D01*
Y964950D01*
X999461Y962198D01*
X1000523Y959635D01*
X1002213Y957433D01*
X1004415Y955743D01*
X1006979Y954681D01*
X1009730Y954319D01*
X1012482Y954681D01*
X1015045Y955743D01*
X1017247Y957433D01*
X1018937Y959635D01*
X1019999Y962198D01*
X1020361Y964950D01*
Y966950D01*
X1019999Y969702D01*
X1018937Y972265D01*
X1017247Y974467D01*
X1015045Y976157D01*
X1012482Y977219D01*
X1009730Y977581D01*
D02*
G37*
G36*
X820548Y961390D02*
X812160D01*
Y953002D01*
X814390D01*
X816747Y953471D01*
X818745Y954805D01*
X820079Y956803D01*
X820548Y959160D01*
Y961390D01*
D02*
G37*
G36*
X1452070Y926690D02*
X1430990D01*
Y903610D01*
X1452070D01*
Y926690D01*
D02*
G37*
G36*
X1416130Y926781D02*
X1413378Y926419D01*
X1410815Y925357D01*
X1408613Y923667D01*
X1406923Y921466D01*
X1405861Y918902D01*
X1405499Y916150D01*
Y914150D01*
X1405861Y911398D01*
X1406923Y908835D01*
X1408613Y906633D01*
X1410815Y904943D01*
X1413378Y903881D01*
X1416130Y903519D01*
X1418882Y903881D01*
X1421445Y904943D01*
X1423647Y906633D01*
X1425337Y908835D01*
X1426399Y911398D01*
X1426761Y914150D01*
Y916150D01*
X1426399Y918902D01*
X1425337Y921466D01*
X1423647Y923667D01*
X1421445Y925357D01*
X1418882Y926419D01*
X1416130Y926781D01*
D02*
G37*
G36*
X1390730D02*
X1387979Y926419D01*
X1385415Y925357D01*
X1383213Y923667D01*
X1381523Y921466D01*
X1380461Y918902D01*
X1380099Y916150D01*
Y914150D01*
X1380461Y911398D01*
X1381523Y908835D01*
X1383213Y906633D01*
X1385415Y904943D01*
X1387979Y903881D01*
X1390730Y903519D01*
X1393481Y903881D01*
X1396046Y904943D01*
X1398247Y906633D01*
X1399937Y908835D01*
X1400999Y911398D01*
X1401361Y914150D01*
Y916150D01*
X1400999Y918902D01*
X1399937Y921466D01*
X1398247Y923667D01*
X1396046Y925357D01*
X1393481Y926419D01*
X1390730Y926781D01*
D02*
G37*
G36*
X1365330D02*
X1362578Y926419D01*
X1360015Y925357D01*
X1357813Y923667D01*
X1356123Y921466D01*
X1355061Y918902D01*
X1354699Y916150D01*
Y914150D01*
X1355061Y911398D01*
X1356123Y908835D01*
X1357813Y906633D01*
X1360015Y904943D01*
X1362578Y903881D01*
X1365330Y903519D01*
X1368082Y903881D01*
X1370645Y904943D01*
X1372847Y906633D01*
X1374537Y908835D01*
X1375599Y911398D01*
X1375961Y914150D01*
Y916150D01*
X1375599Y918902D01*
X1374537Y921466D01*
X1372847Y923667D01*
X1370645Y925357D01*
X1368082Y926419D01*
X1365330Y926781D01*
D02*
G37*
G36*
X1339930D02*
X1337178Y926419D01*
X1334615Y925357D01*
X1332413Y923667D01*
X1330723Y921466D01*
X1329661Y918902D01*
X1329299Y916150D01*
Y914150D01*
X1329661Y911398D01*
X1330723Y908835D01*
X1332413Y906633D01*
X1334615Y904943D01*
X1337178Y903881D01*
X1339930Y903519D01*
X1342681Y903881D01*
X1345246Y904943D01*
X1347447Y906633D01*
X1349137Y908835D01*
X1350199Y911398D01*
X1350561Y914150D01*
Y916150D01*
X1350199Y918902D01*
X1349137Y921466D01*
X1347447Y923667D01*
X1345246Y925357D01*
X1342681Y926419D01*
X1339930Y926781D01*
D02*
G37*
G36*
X1314530D02*
X1311779Y926419D01*
X1309215Y925357D01*
X1307013Y923667D01*
X1305323Y921466D01*
X1304261Y918902D01*
X1303899Y916150D01*
Y914150D01*
X1304261Y911398D01*
X1305323Y908835D01*
X1307013Y906633D01*
X1309215Y904943D01*
X1311779Y903881D01*
X1314530Y903519D01*
X1317281Y903881D01*
X1319845Y904943D01*
X1322047Y906633D01*
X1323737Y908835D01*
X1324799Y911398D01*
X1325161Y914150D01*
Y916150D01*
X1324799Y918902D01*
X1323737Y921466D01*
X1322047Y923667D01*
X1319845Y925357D01*
X1317281Y926419D01*
X1314530Y926781D01*
D02*
G37*
G36*
X1289130D02*
X1286378Y926419D01*
X1283815Y925357D01*
X1281613Y923667D01*
X1279923Y921466D01*
X1278861Y918902D01*
X1278499Y916150D01*
Y914150D01*
X1278861Y911398D01*
X1279923Y908835D01*
X1281613Y906633D01*
X1283815Y904943D01*
X1286378Y903881D01*
X1289130Y903519D01*
X1291882Y903881D01*
X1294445Y904943D01*
X1296647Y906633D01*
X1298337Y908835D01*
X1299399Y911398D01*
X1299761Y914150D01*
Y916150D01*
X1299399Y918902D01*
X1298337Y921466D01*
X1296647Y923667D01*
X1294445Y925357D01*
X1291882Y926419D01*
X1289130Y926781D01*
D02*
G37*
G36*
X1263730D02*
X1260978Y926419D01*
X1258415Y925357D01*
X1256213Y923667D01*
X1254523Y921466D01*
X1253461Y918902D01*
X1253099Y916150D01*
Y914150D01*
X1253461Y911398D01*
X1254523Y908835D01*
X1256213Y906633D01*
X1258415Y904943D01*
X1260978Y903881D01*
X1263730Y903519D01*
X1266481Y903881D01*
X1269045Y904943D01*
X1271247Y906633D01*
X1272937Y908835D01*
X1273999Y911398D01*
X1274361Y914150D01*
Y916150D01*
X1273999Y918902D01*
X1272937Y921466D01*
X1271247Y923667D01*
X1269045Y925357D01*
X1266481Y926419D01*
X1263730Y926781D01*
D02*
G37*
G36*
X1223130D02*
X1220378Y926419D01*
X1217814Y925357D01*
X1215613Y923667D01*
X1213923Y921466D01*
X1212861Y918902D01*
X1212499Y916150D01*
Y914150D01*
X1212861Y911398D01*
X1213923Y908835D01*
X1215613Y906633D01*
X1217814Y904943D01*
X1220378Y903881D01*
X1223130Y903519D01*
X1225882Y903881D01*
X1228445Y904943D01*
X1230647Y906633D01*
X1232337Y908835D01*
X1233399Y911398D01*
X1233761Y914150D01*
Y916150D01*
X1233399Y918902D01*
X1232337Y921466D01*
X1230647Y923667D01*
X1228445Y925357D01*
X1225882Y926419D01*
X1223130Y926781D01*
D02*
G37*
G36*
X1197730D02*
X1194978Y926419D01*
X1192414Y925357D01*
X1190213Y923667D01*
X1188523Y921466D01*
X1187461Y918902D01*
X1187099Y916150D01*
Y914150D01*
X1187461Y911398D01*
X1188523Y908835D01*
X1190213Y906633D01*
X1192414Y904943D01*
X1194978Y903881D01*
X1197730Y903519D01*
X1200481Y903881D01*
X1203045Y904943D01*
X1205247Y906633D01*
X1206937Y908835D01*
X1207999Y911398D01*
X1208361Y914150D01*
Y916150D01*
X1207999Y918902D01*
X1206937Y921466D01*
X1205247Y923667D01*
X1203045Y925357D01*
X1200481Y926419D01*
X1197730Y926781D01*
D02*
G37*
G36*
X1172330D02*
X1169578Y926419D01*
X1167014Y925357D01*
X1164813Y923667D01*
X1163123Y921466D01*
X1162061Y918902D01*
X1161699Y916150D01*
Y914150D01*
X1162061Y911398D01*
X1163123Y908835D01*
X1164813Y906633D01*
X1167014Y904943D01*
X1169578Y903881D01*
X1172330Y903519D01*
X1175081Y903881D01*
X1177645Y904943D01*
X1179847Y906633D01*
X1181537Y908835D01*
X1182599Y911398D01*
X1182961Y914150D01*
Y916150D01*
X1182599Y918902D01*
X1181537Y921466D01*
X1179847Y923667D01*
X1177645Y925357D01*
X1175081Y926419D01*
X1172330Y926781D01*
D02*
G37*
G36*
X1146930D02*
X1144178Y926419D01*
X1141615Y925357D01*
X1139413Y923667D01*
X1137723Y921466D01*
X1136661Y918902D01*
X1136299Y916150D01*
Y914150D01*
X1136661Y911398D01*
X1137723Y908835D01*
X1139413Y906633D01*
X1141615Y904943D01*
X1144178Y903881D01*
X1146930Y903519D01*
X1149681Y903881D01*
X1152245Y904943D01*
X1154447Y906633D01*
X1156137Y908835D01*
X1157199Y911398D01*
X1157561Y914150D01*
Y916150D01*
X1157199Y918902D01*
X1156137Y921466D01*
X1154447Y923667D01*
X1152245Y925357D01*
X1149681Y926419D01*
X1146930Y926781D01*
D02*
G37*
G36*
X1121530D02*
X1118779Y926419D01*
X1116215Y925357D01*
X1114013Y923667D01*
X1112323Y921466D01*
X1111261Y918902D01*
X1110899Y916150D01*
Y914150D01*
X1111261Y911398D01*
X1112323Y908835D01*
X1114013Y906633D01*
X1116215Y904943D01*
X1118779Y903881D01*
X1121530Y903519D01*
X1124281Y903881D01*
X1126845Y904943D01*
X1129047Y906633D01*
X1130737Y908835D01*
X1131799Y911398D01*
X1132161Y914150D01*
Y916150D01*
X1131799Y918902D01*
X1130737Y921466D01*
X1129047Y923667D01*
X1126845Y925357D01*
X1124281Y926419D01*
X1121530Y926781D01*
D02*
G37*
G36*
X1096130D02*
X1093379Y926419D01*
X1090815Y925357D01*
X1088613Y923667D01*
X1086923Y921466D01*
X1085861Y918902D01*
X1085499Y916150D01*
Y914150D01*
X1085861Y911398D01*
X1086923Y908835D01*
X1088613Y906633D01*
X1090815Y904943D01*
X1093379Y903881D01*
X1096130Y903519D01*
X1098882Y903881D01*
X1101445Y904943D01*
X1103647Y906633D01*
X1105337Y908835D01*
X1106399Y911398D01*
X1106761Y914150D01*
Y916150D01*
X1106399Y918902D01*
X1105337Y921466D01*
X1103647Y923667D01*
X1101445Y925357D01*
X1098882Y926419D01*
X1096130Y926781D01*
D02*
G37*
G36*
X1070730D02*
X1067979Y926419D01*
X1065415Y925357D01*
X1063213Y923667D01*
X1061523Y921466D01*
X1060461Y918902D01*
X1060099Y916150D01*
Y914150D01*
X1060461Y911398D01*
X1061523Y908835D01*
X1063213Y906633D01*
X1065415Y904943D01*
X1067979Y903881D01*
X1070730Y903519D01*
X1073482Y903881D01*
X1076045Y904943D01*
X1078247Y906633D01*
X1079937Y908835D01*
X1080999Y911398D01*
X1081361Y914150D01*
Y916150D01*
X1080999Y918902D01*
X1079937Y921466D01*
X1078247Y923667D01*
X1076045Y925357D01*
X1073482Y926419D01*
X1070730Y926781D01*
D02*
G37*
G36*
X1045330D02*
X1042579Y926419D01*
X1040014Y925357D01*
X1037813Y923667D01*
X1036123Y921466D01*
X1035061Y918902D01*
X1034699Y916150D01*
Y914150D01*
X1035061Y911398D01*
X1036123Y908835D01*
X1037813Y906633D01*
X1040014Y904943D01*
X1042579Y903881D01*
X1045330Y903519D01*
X1048082Y903881D01*
X1050645Y904943D01*
X1052847Y906633D01*
X1054537Y908835D01*
X1055599Y911398D01*
X1055961Y914150D01*
Y916150D01*
X1055599Y918902D01*
X1054537Y921466D01*
X1052847Y923667D01*
X1050645Y925357D01*
X1048082Y926419D01*
X1045330Y926781D01*
D02*
G37*
G36*
X814710Y897388D02*
X812480D01*
Y889000D01*
X820868D01*
Y891230D01*
X820400Y893587D01*
X819065Y895585D01*
X817067Y896919D01*
X814710Y897388D01*
D02*
G37*
G36*
X820868Y886460D02*
X812480D01*
Y878072D01*
X814710D01*
X817067Y878540D01*
X819065Y879875D01*
X820400Y881873D01*
X820868Y884230D01*
Y886460D01*
D02*
G37*
G36*
X1422906Y850170D02*
X1420940Y850170D01*
X1418974Y850170D01*
X1415075Y849657D01*
X1411276Y848639D01*
X1407643Y847134D01*
X1404237Y845168D01*
X1401117Y842774D01*
X1398336Y839993D01*
X1395942Y836873D01*
X1393976Y833467D01*
X1392471Y829834D01*
X1391453Y826035D01*
X1390940Y822136D01*
X1390940Y820170D01*
X1390940Y818204D01*
X1391453Y814305D01*
X1392471Y810506D01*
X1393976Y806873D01*
X1395942Y803467D01*
X1398336Y800347D01*
X1401117Y797567D01*
X1404237Y795173D01*
X1407643Y793206D01*
X1411276Y791701D01*
X1415075Y790683D01*
X1418974Y790170D01*
X1420940Y790170D01*
X1422906Y790170D01*
X1426805Y790683D01*
X1430604Y791701D01*
X1434237Y793206D01*
X1437643Y795173D01*
X1440763Y797567D01*
X1443544Y800347D01*
X1445938Y803467D01*
X1447904Y806873D01*
X1449409Y810506D01*
X1450427Y814305D01*
X1450940Y818204D01*
X1450940Y820170D01*
Y822137D01*
X1450427Y826036D01*
X1449409Y829834D01*
X1447904Y833467D01*
X1445938Y836873D01*
X1443544Y839993D01*
X1440763Y842774D01*
X1437643Y845168D01*
X1434237Y847134D01*
X1430604Y848639D01*
X1426805Y849657D01*
X1422906Y850170D01*
D02*
G37*
G36*
X728940Y790766D02*
X725210D01*
Y781440D01*
X735536D01*
Y784170D01*
X735312Y785877D01*
X734653Y787468D01*
X733604Y788834D01*
X732238Y789883D01*
X730647Y790542D01*
X728940Y790766D01*
D02*
G37*
G36*
X735536Y778900D02*
X725210D01*
Y769574D01*
X728940D01*
X730647Y769798D01*
X732238Y770457D01*
X733604Y771506D01*
X734653Y772872D01*
X735312Y774463D01*
X735536Y776170D01*
Y778900D01*
D02*
G37*
G36*
X802701Y787310D02*
X797579D01*
X792520Y786509D01*
X787649Y784926D01*
X783085Y782601D01*
X778942Y779590D01*
X775320Y775968D01*
X772309Y771825D01*
X769984Y767261D01*
X768401Y762390D01*
X767600Y757331D01*
Y752209D01*
X768401Y747150D01*
X769984Y742279D01*
X772309Y737715D01*
X775320Y733572D01*
X778942Y729950D01*
X783085Y726939D01*
X787649Y724614D01*
X792520Y723031D01*
X797579Y722230D01*
X802701D01*
X807760Y723031D01*
X812631Y724614D01*
X817195Y726939D01*
X821338Y729950D01*
X824960Y733572D01*
X827971Y737715D01*
X830296Y742279D01*
X831879Y747150D01*
X832680Y752209D01*
Y757331D01*
X831879Y762390D01*
X830296Y767261D01*
X827971Y771825D01*
X824960Y775968D01*
X821338Y779590D01*
X817195Y782601D01*
X812631Y784926D01*
X807760Y786509D01*
X802701Y787310D01*
D02*
G37*
G36*
X1076191Y722710D02*
X1072889D01*
X1069700Y721855D01*
X1066840Y720204D01*
X1064505Y717870D01*
X1062855Y715010D01*
X1062000Y711821D01*
Y708519D01*
X1062855Y705330D01*
X1064505Y702470D01*
X1066840Y700135D01*
X1069700Y698485D01*
X1072889Y697630D01*
X1076191D01*
X1079380Y698485D01*
X1082240Y700135D01*
X1084575Y702470D01*
X1086225Y705330D01*
X1087080Y708519D01*
Y711821D01*
X1086225Y715010D01*
X1084575Y717870D01*
X1082240Y720204D01*
X1079380Y721855D01*
X1076191Y722710D01*
D02*
G37*
G36*
X1422906Y536170D02*
X1420940Y536170D01*
X1418974Y536170D01*
X1415075Y535657D01*
X1411276Y534639D01*
X1407643Y533134D01*
X1404237Y531168D01*
X1401117Y528774D01*
X1398336Y525993D01*
X1395942Y522873D01*
X1393976Y519467D01*
X1392471Y515834D01*
X1391453Y512035D01*
X1390940Y508136D01*
X1390940Y506170D01*
X1390940Y504204D01*
X1391453Y500305D01*
X1392471Y496506D01*
X1393976Y492873D01*
X1395942Y489467D01*
X1398336Y486347D01*
X1401117Y483567D01*
X1404237Y481172D01*
X1407643Y479206D01*
X1411276Y477701D01*
X1415075Y476683D01*
X1418974Y476170D01*
X1420940Y476170D01*
X1422906Y476170D01*
X1426805Y476683D01*
X1430604Y477701D01*
X1434237Y479206D01*
X1437643Y481172D01*
X1440763Y483567D01*
X1443544Y486347D01*
X1445938Y489467D01*
X1447904Y492873D01*
X1449409Y496506D01*
X1450427Y500305D01*
X1450940Y504204D01*
X1450940Y506170D01*
Y508137D01*
X1450427Y512036D01*
X1449409Y515834D01*
X1447904Y519468D01*
X1445938Y522873D01*
X1443544Y525993D01*
X1440763Y528774D01*
X1437643Y531168D01*
X1434237Y533134D01*
X1430604Y534639D01*
X1426805Y535657D01*
X1422906Y536170D01*
D02*
G37*
G36*
X668906D02*
X666940Y536170D01*
X664974Y536170D01*
X661075Y535657D01*
X657276Y534639D01*
X653643Y533134D01*
X650237Y531168D01*
X647117Y528774D01*
X644336Y525993D01*
X641942Y522873D01*
X639976Y519467D01*
X638471Y515834D01*
X637453Y512035D01*
X636940Y508136D01*
X636940Y506170D01*
X636940Y504204D01*
X637453Y500305D01*
X638471Y496506D01*
X639976Y492873D01*
X641942Y489467D01*
X644336Y486347D01*
X647117Y483567D01*
X650237Y481172D01*
X653643Y479206D01*
X657276Y477701D01*
X661075Y476683D01*
X664974Y476170D01*
X666940Y476170D01*
X668906Y476170D01*
X672805Y476683D01*
X676604Y477701D01*
X680237Y479206D01*
X683643Y481172D01*
X686763Y483567D01*
X689544Y486347D01*
X691938Y489467D01*
X693904Y492873D01*
X695409Y496506D01*
X696427Y500305D01*
X696940Y504204D01*
X696940Y506170D01*
Y508137D01*
X696427Y512036D01*
X695409Y515834D01*
X693904Y519468D01*
X691938Y522873D01*
X689544Y525993D01*
X686763Y528774D01*
X683643Y531168D01*
X680237Y533134D01*
X676604Y534639D01*
X672805Y535657D01*
X668906Y536170D01*
D02*
G37*
G36*
X1214200Y444014D02*
Y433820D01*
X1223525D01*
X1223199Y436301D01*
X1222137Y438866D01*
X1220447Y441067D01*
X1218245Y442757D01*
X1215682Y443819D01*
X1214200Y444014D01*
D02*
G37*
G36*
X1211660Y444014D02*
X1210179Y443819D01*
X1207615Y442757D01*
X1205413Y441067D01*
X1203723Y438866D01*
X1202661Y436301D01*
X1202335Y433820D01*
X1211660D01*
Y444014D01*
D02*
G37*
G36*
X899795Y432435D02*
X878205D01*
Y429326D01*
X857942D01*
X857294Y429973D01*
X854920Y431344D01*
X852271Y432054D01*
X849529D01*
X846880Y431344D01*
X844506Y429973D01*
X842567Y428034D01*
X841196Y425660D01*
X840486Y423011D01*
Y420269D01*
X841196Y417620D01*
X842567Y415246D01*
X844506Y413307D01*
X846880Y411936D01*
X849529Y411226D01*
X852271D01*
X854920Y411936D01*
X857294Y413307D01*
X857942Y413954D01*
X878205D01*
Y410845D01*
X899795D01*
Y432435D01*
D02*
G37*
G36*
X915821D02*
X915670D01*
Y422910D01*
X925195D01*
Y423061D01*
X924459Y425807D01*
X923038Y428268D01*
X921028Y430278D01*
X918567Y431699D01*
X915821Y432435D01*
D02*
G37*
G36*
X913130D02*
X912979D01*
X910233Y431699D01*
X907772Y430278D01*
X905762Y428268D01*
X904341Y425807D01*
X903605Y423061D01*
Y422910D01*
X913130D01*
Y432435D01*
D02*
G37*
G36*
X1223525Y431280D02*
X1214200D01*
Y421086D01*
X1215682Y421281D01*
X1218245Y422343D01*
X1220447Y424033D01*
X1222137Y426235D01*
X1223199Y428798D01*
X1223525Y431280D01*
D02*
G37*
G36*
X1211660D02*
X1202335D01*
X1202661Y428798D01*
X1203723Y426235D01*
X1205413Y424033D01*
X1207615Y422343D01*
X1210179Y421281D01*
X1211660Y421086D01*
Y431280D01*
D02*
G37*
G36*
X1325070Y444090D02*
X1303990D01*
Y421010D01*
X1325070D01*
Y444090D01*
D02*
G37*
G36*
X1441530Y444181D02*
X1438779Y443819D01*
X1436215Y442757D01*
X1434013Y441067D01*
X1432323Y438866D01*
X1431261Y436301D01*
X1430899Y433550D01*
Y431550D01*
X1431261Y428798D01*
X1432323Y426235D01*
X1434013Y424033D01*
X1436215Y422343D01*
X1438779Y421281D01*
X1441530Y420919D01*
X1444281Y421281D01*
X1446846Y422343D01*
X1449047Y424033D01*
X1450737Y426235D01*
X1451799Y428798D01*
X1452161Y431550D01*
Y433550D01*
X1451799Y436301D01*
X1450737Y438866D01*
X1449047Y441067D01*
X1446846Y442757D01*
X1444281Y443819D01*
X1441530Y444181D01*
D02*
G37*
G36*
X1416130D02*
X1413378Y443819D01*
X1410815Y442757D01*
X1408613Y441067D01*
X1406923Y438866D01*
X1405861Y436301D01*
X1405499Y433550D01*
Y431550D01*
X1405861Y428798D01*
X1406923Y426235D01*
X1408613Y424033D01*
X1410815Y422343D01*
X1413378Y421281D01*
X1416130Y420919D01*
X1418882Y421281D01*
X1421445Y422343D01*
X1423647Y424033D01*
X1425337Y426235D01*
X1426399Y428798D01*
X1426761Y431550D01*
Y433550D01*
X1426399Y436301D01*
X1425337Y438866D01*
X1423647Y441067D01*
X1421445Y442757D01*
X1418882Y443819D01*
X1416130Y444181D01*
D02*
G37*
G36*
X1390730D02*
X1387979Y443819D01*
X1385415Y442757D01*
X1383213Y441067D01*
X1381523Y438866D01*
X1380461Y436301D01*
X1380099Y433550D01*
Y431550D01*
X1380461Y428798D01*
X1381523Y426235D01*
X1383213Y424033D01*
X1385415Y422343D01*
X1387979Y421281D01*
X1390730Y420919D01*
X1393481Y421281D01*
X1396046Y422343D01*
X1398247Y424033D01*
X1399937Y426235D01*
X1400999Y428798D01*
X1401361Y431550D01*
Y433550D01*
X1400999Y436301D01*
X1399937Y438866D01*
X1398247Y441067D01*
X1396046Y442757D01*
X1393481Y443819D01*
X1390730Y444181D01*
D02*
G37*
G36*
X1365330D02*
X1362578Y443819D01*
X1360015Y442757D01*
X1357813Y441067D01*
X1356123Y438866D01*
X1355061Y436301D01*
X1354699Y433550D01*
Y431550D01*
X1355061Y428798D01*
X1356123Y426235D01*
X1357813Y424033D01*
X1360015Y422343D01*
X1362578Y421281D01*
X1365330Y420919D01*
X1368082Y421281D01*
X1370645Y422343D01*
X1372847Y424033D01*
X1374537Y426235D01*
X1375599Y428798D01*
X1375961Y431550D01*
Y433550D01*
X1375599Y436301D01*
X1374537Y438866D01*
X1372847Y441067D01*
X1370645Y442757D01*
X1368082Y443819D01*
X1365330Y444181D01*
D02*
G37*
G36*
X1339930D02*
X1337178Y443819D01*
X1334615Y442757D01*
X1332413Y441067D01*
X1330723Y438866D01*
X1329661Y436301D01*
X1329299Y433550D01*
Y431550D01*
X1329661Y428798D01*
X1330723Y426235D01*
X1332413Y424033D01*
X1334615Y422343D01*
X1337178Y421281D01*
X1339930Y420919D01*
X1342681Y421281D01*
X1345246Y422343D01*
X1347447Y424033D01*
X1349137Y426235D01*
X1350199Y428798D01*
X1350561Y431550D01*
Y433550D01*
X1350199Y436301D01*
X1349137Y438866D01*
X1347447Y441067D01*
X1345246Y442757D01*
X1342681Y443819D01*
X1339930Y444181D01*
D02*
G37*
G36*
X1263730D02*
X1260978Y443819D01*
X1258415Y442757D01*
X1256213Y441067D01*
X1254523Y438866D01*
X1253461Y436301D01*
X1253099Y433550D01*
Y431550D01*
X1253461Y428798D01*
X1254523Y426235D01*
X1256213Y424033D01*
X1258415Y422343D01*
X1260978Y421281D01*
X1263730Y420919D01*
X1266481Y421281D01*
X1269045Y422343D01*
X1271247Y424033D01*
X1272937Y426235D01*
X1273999Y428798D01*
X1274361Y431550D01*
Y433550D01*
X1273999Y436301D01*
X1272937Y438866D01*
X1271247Y441067D01*
X1269045Y442757D01*
X1266481Y443819D01*
X1263730Y444181D01*
D02*
G37*
G36*
X1238330D02*
X1235579Y443819D01*
X1233015Y442757D01*
X1230813Y441067D01*
X1229123Y438866D01*
X1228061Y436301D01*
X1227699Y433550D01*
Y431550D01*
X1228061Y428798D01*
X1229123Y426235D01*
X1230813Y424033D01*
X1233015Y422343D01*
X1235579Y421281D01*
X1238330Y420919D01*
X1241081Y421281D01*
X1243645Y422343D01*
X1245847Y424033D01*
X1247537Y426235D01*
X1248599Y428798D01*
X1248961Y431550D01*
Y433550D01*
X1248599Y436301D01*
X1247537Y438866D01*
X1245847Y441067D01*
X1243645Y442757D01*
X1241081Y443819D01*
X1238330Y444181D01*
D02*
G37*
G36*
X948204Y452590D02*
X944256D01*
X940385Y451820D01*
X936738Y450309D01*
X933455Y448116D01*
X930664Y445325D01*
X928471Y442043D01*
X926960Y438396D01*
X926190Y434524D01*
Y430576D01*
X926960Y426705D01*
X928471Y423058D01*
X930664Y419775D01*
X933455Y416984D01*
X936738Y414791D01*
X940385Y413280D01*
X944256Y412510D01*
X948204D01*
X952076Y413280D01*
X955723Y414791D01*
X959005Y416984D01*
X961796Y419775D01*
X963989Y423058D01*
X965500Y426705D01*
X966270Y430576D01*
Y434524D01*
X965500Y438396D01*
X963989Y442043D01*
X961796Y445325D01*
X959005Y448116D01*
X955723Y450309D01*
X952076Y451820D01*
X948204Y452590D01*
D02*
G37*
G36*
X925195Y420370D02*
X915670D01*
Y410845D01*
X915821D01*
X918567Y411581D01*
X921028Y413002D01*
X923038Y415012D01*
X924459Y417473D01*
X925195Y420219D01*
Y420370D01*
D02*
G37*
G36*
X913130D02*
X903605D01*
Y420219D01*
X904341Y417473D01*
X905762Y415012D01*
X907772Y413002D01*
X910233Y411581D01*
X912979Y410845D01*
X913130D01*
Y420370D01*
D02*
G37*
G36*
X1441530Y393381D02*
X1438779Y393019D01*
X1436215Y391957D01*
X1434013Y390267D01*
X1432323Y388065D01*
X1431261Y385502D01*
X1430899Y382750D01*
Y380750D01*
X1431261Y377999D01*
X1432323Y375435D01*
X1434013Y373233D01*
X1436215Y371543D01*
X1438779Y370481D01*
X1441530Y370119D01*
X1444281Y370481D01*
X1446846Y371543D01*
X1449047Y373233D01*
X1450737Y375435D01*
X1451799Y377999D01*
X1452161Y380750D01*
Y382750D01*
X1451799Y385502D01*
X1450737Y388065D01*
X1449047Y390267D01*
X1446846Y391957D01*
X1444281Y393019D01*
X1441530Y393381D01*
D02*
G37*
G36*
X1416130D02*
X1413378Y393019D01*
X1410815Y391957D01*
X1408613Y390267D01*
X1406923Y388065D01*
X1405861Y385502D01*
X1405499Y382750D01*
Y380750D01*
X1405861Y377999D01*
X1406923Y375435D01*
X1408613Y373233D01*
X1410815Y371543D01*
X1413378Y370481D01*
X1416130Y370119D01*
X1418882Y370481D01*
X1421445Y371543D01*
X1423647Y373233D01*
X1425337Y375435D01*
X1426399Y377999D01*
X1426761Y380750D01*
Y382750D01*
X1426399Y385502D01*
X1425337Y388065D01*
X1423647Y390267D01*
X1421445Y391957D01*
X1418882Y393019D01*
X1416130Y393381D01*
D02*
G37*
G36*
X1390730D02*
X1387979Y393019D01*
X1385415Y391957D01*
X1383213Y390267D01*
X1381523Y388065D01*
X1380461Y385502D01*
X1380099Y382750D01*
Y380750D01*
X1380461Y377999D01*
X1381523Y375435D01*
X1383213Y373233D01*
X1385415Y371543D01*
X1387979Y370481D01*
X1390730Y370119D01*
X1393481Y370481D01*
X1396046Y371543D01*
X1398247Y373233D01*
X1399937Y375435D01*
X1400999Y377999D01*
X1401361Y380750D01*
Y382750D01*
X1400999Y385502D01*
X1399937Y388065D01*
X1398247Y390267D01*
X1396046Y391957D01*
X1393481Y393019D01*
X1390730Y393381D01*
D02*
G37*
G36*
X1365330D02*
X1362578Y393019D01*
X1360015Y391957D01*
X1357813Y390267D01*
X1356123Y388065D01*
X1355061Y385502D01*
X1354699Y382750D01*
Y380750D01*
X1355061Y377999D01*
X1356123Y375435D01*
X1357813Y373233D01*
X1360015Y371543D01*
X1362578Y370481D01*
X1365330Y370119D01*
X1368082Y370481D01*
X1370645Y371543D01*
X1372847Y373233D01*
X1374537Y375435D01*
X1375599Y377999D01*
X1375961Y380750D01*
Y382750D01*
X1375599Y385502D01*
X1374537Y388065D01*
X1372847Y390267D01*
X1370645Y391957D01*
X1368082Y393019D01*
X1365330Y393381D01*
D02*
G37*
G36*
X1339930D02*
X1337178Y393019D01*
X1334615Y391957D01*
X1332413Y390267D01*
X1330723Y388065D01*
X1329661Y385502D01*
X1329299Y382750D01*
Y380750D01*
X1329661Y377999D01*
X1330723Y375435D01*
X1332413Y373233D01*
X1334615Y371543D01*
X1337178Y370481D01*
X1339930Y370119D01*
X1342681Y370481D01*
X1345246Y371543D01*
X1347447Y373233D01*
X1349137Y375435D01*
X1350199Y377999D01*
X1350561Y380750D01*
Y382750D01*
X1350199Y385502D01*
X1349137Y388065D01*
X1347447Y390267D01*
X1345246Y391957D01*
X1342681Y393019D01*
X1339930Y393381D01*
D02*
G37*
G36*
X1314530D02*
X1311779Y393019D01*
X1309215Y391957D01*
X1307013Y390267D01*
X1305323Y388065D01*
X1304261Y385502D01*
X1303899Y382750D01*
Y380750D01*
X1304261Y377999D01*
X1305323Y375435D01*
X1307013Y373233D01*
X1309215Y371543D01*
X1311779Y370481D01*
X1314530Y370119D01*
X1317281Y370481D01*
X1319845Y371543D01*
X1322047Y373233D01*
X1323737Y375435D01*
X1324799Y377999D01*
X1325161Y380750D01*
Y382750D01*
X1324799Y385502D01*
X1323737Y388065D01*
X1322047Y390267D01*
X1319845Y391957D01*
X1317281Y393019D01*
X1314530Y393381D01*
D02*
G37*
G36*
X1289130D02*
X1286378Y393019D01*
X1283815Y391957D01*
X1281613Y390267D01*
X1279923Y388065D01*
X1278861Y385502D01*
X1278499Y382750D01*
Y380750D01*
X1278861Y377999D01*
X1279923Y375435D01*
X1281613Y373233D01*
X1283815Y371543D01*
X1286378Y370481D01*
X1289130Y370119D01*
X1291882Y370481D01*
X1294445Y371543D01*
X1296647Y373233D01*
X1298337Y375435D01*
X1299399Y377999D01*
X1299761Y380750D01*
Y382750D01*
X1299399Y385502D01*
X1298337Y388065D01*
X1296647Y390267D01*
X1294445Y391957D01*
X1291882Y393019D01*
X1289130Y393381D01*
D02*
G37*
G36*
X1263730D02*
X1260978Y393019D01*
X1258415Y391957D01*
X1256213Y390267D01*
X1254523Y388065D01*
X1253461Y385502D01*
X1253099Y382750D01*
Y380750D01*
X1253461Y377999D01*
X1254523Y375435D01*
X1256213Y373233D01*
X1258415Y371543D01*
X1260978Y370481D01*
X1263730Y370119D01*
X1266481Y370481D01*
X1269045Y371543D01*
X1271247Y373233D01*
X1272937Y375435D01*
X1273999Y377999D01*
X1274361Y380750D01*
Y382750D01*
X1273999Y385502D01*
X1272937Y388065D01*
X1271247Y390267D01*
X1269045Y391957D01*
X1266481Y393019D01*
X1263730Y393381D01*
D02*
G37*
G36*
X1238330D02*
X1235579Y393019D01*
X1233015Y391957D01*
X1230813Y390267D01*
X1229123Y388065D01*
X1228061Y385502D01*
X1227699Y382750D01*
Y380750D01*
X1228061Y377999D01*
X1229123Y375435D01*
X1230813Y373233D01*
X1233015Y371543D01*
X1235579Y370481D01*
X1238330Y370119D01*
X1241081Y370481D01*
X1243645Y371543D01*
X1245847Y373233D01*
X1247537Y375435D01*
X1248599Y377999D01*
X1248961Y380750D01*
Y382750D01*
X1248599Y385502D01*
X1247537Y388065D01*
X1245847Y390267D01*
X1243645Y391957D01*
X1241081Y393019D01*
X1238330Y393381D01*
D02*
G37*
G36*
X1212930D02*
X1210179Y393019D01*
X1207615Y391957D01*
X1205413Y390267D01*
X1203723Y388065D01*
X1202661Y385502D01*
X1202299Y382750D01*
Y380750D01*
X1202661Y377999D01*
X1203723Y375435D01*
X1205413Y373233D01*
X1207615Y371543D01*
X1210179Y370481D01*
X1212930Y370119D01*
X1215682Y370481D01*
X1218245Y371543D01*
X1220447Y373233D01*
X1222137Y375435D01*
X1223199Y377999D01*
X1223561Y380750D01*
Y382750D01*
X1223199Y385502D01*
X1222137Y388065D01*
X1220447Y390267D01*
X1218245Y391957D01*
X1215682Y393019D01*
X1212930Y393381D01*
D02*
G37*
G36*
X1187530D02*
X1184779Y393019D01*
X1182215Y391957D01*
X1180013Y390267D01*
X1178323Y388065D01*
X1177261Y385502D01*
X1176899Y382750D01*
Y380750D01*
X1177261Y377999D01*
X1178323Y375435D01*
X1180013Y373233D01*
X1182215Y371543D01*
X1184779Y370481D01*
X1187530Y370119D01*
X1190282Y370481D01*
X1192846Y371543D01*
X1195047Y373233D01*
X1196737Y375435D01*
X1197799Y377999D01*
X1198161Y380750D01*
Y382750D01*
X1197799Y385502D01*
X1196737Y388065D01*
X1195047Y390267D01*
X1192846Y391957D01*
X1190282Y393019D01*
X1187530Y393381D01*
D02*
G37*
G36*
X1162130D02*
X1159379Y393019D01*
X1156815Y391957D01*
X1154613Y390267D01*
X1152923Y388065D01*
X1151861Y385502D01*
X1151499Y382750D01*
Y380750D01*
X1151861Y377999D01*
X1152923Y375435D01*
X1154613Y373233D01*
X1156815Y371543D01*
X1159379Y370481D01*
X1162130Y370119D01*
X1164882Y370481D01*
X1167446Y371543D01*
X1169647Y373233D01*
X1171337Y375435D01*
X1172399Y377999D01*
X1172761Y380750D01*
Y382750D01*
X1172399Y385502D01*
X1171337Y388065D01*
X1169647Y390267D01*
X1167446Y391957D01*
X1164882Y393019D01*
X1162130Y393381D01*
D02*
G37*
G36*
X1136730D02*
X1133979Y393019D01*
X1131415Y391957D01*
X1129213Y390267D01*
X1127523Y388065D01*
X1126461Y385502D01*
X1126099Y382750D01*
Y380750D01*
X1126461Y377999D01*
X1127523Y375435D01*
X1129213Y373233D01*
X1131415Y371543D01*
X1133979Y370481D01*
X1136730Y370119D01*
X1139482Y370481D01*
X1142046Y371543D01*
X1144247Y373233D01*
X1145937Y375435D01*
X1146999Y377999D01*
X1147361Y380750D01*
Y382750D01*
X1146999Y385502D01*
X1145937Y388065D01*
X1144247Y390267D01*
X1142046Y391957D01*
X1139482Y393019D01*
X1136730Y393381D01*
D02*
G37*
G36*
X1111330D02*
X1108578Y393019D01*
X1106015Y391957D01*
X1103813Y390267D01*
X1102123Y388065D01*
X1101061Y385502D01*
X1100699Y382750D01*
Y380750D01*
X1101061Y377999D01*
X1102123Y375435D01*
X1103813Y373233D01*
X1106015Y371543D01*
X1108578Y370481D01*
X1111330Y370119D01*
X1114081Y370481D01*
X1116646Y371543D01*
X1118847Y373233D01*
X1120537Y375435D01*
X1121599Y377999D01*
X1121961Y380750D01*
Y382750D01*
X1121599Y385502D01*
X1120537Y388065D01*
X1118847Y390267D01*
X1116646Y391957D01*
X1114081Y393019D01*
X1111330Y393381D01*
D02*
G37*
G36*
X1085930D02*
X1083178Y393019D01*
X1080615Y391957D01*
X1078413Y390267D01*
X1076723Y388065D01*
X1075661Y385502D01*
X1075299Y382750D01*
Y380750D01*
X1075661Y377999D01*
X1076723Y375435D01*
X1078413Y373233D01*
X1080615Y371543D01*
X1083178Y370481D01*
X1085930Y370119D01*
X1088681Y370481D01*
X1091245Y371543D01*
X1093447Y373233D01*
X1095137Y375435D01*
X1096199Y377999D01*
X1096561Y380750D01*
Y382750D01*
X1096199Y385502D01*
X1095137Y388065D01*
X1093447Y390267D01*
X1091245Y391957D01*
X1088681Y393019D01*
X1085930Y393381D01*
D02*
G37*
G36*
X1060530D02*
X1057778Y393019D01*
X1055215Y391957D01*
X1053013Y390267D01*
X1051323Y388065D01*
X1050261Y385502D01*
X1049899Y382750D01*
Y380750D01*
X1050261Y377999D01*
X1051323Y375435D01*
X1053013Y373233D01*
X1055215Y371543D01*
X1057778Y370481D01*
X1060530Y370119D01*
X1063281Y370481D01*
X1065845Y371543D01*
X1068047Y373233D01*
X1069737Y375435D01*
X1070799Y377999D01*
X1071161Y380750D01*
Y382750D01*
X1070799Y385502D01*
X1069737Y388065D01*
X1068047Y390267D01*
X1065845Y391957D01*
X1063281Y393019D01*
X1060530Y393381D01*
D02*
G37*
G36*
X1035130D02*
X1032378Y393019D01*
X1029815Y391957D01*
X1027613Y390267D01*
X1025923Y388065D01*
X1024861Y385502D01*
X1024499Y382750D01*
Y380750D01*
X1024861Y377999D01*
X1025923Y375435D01*
X1027613Y373233D01*
X1029815Y371543D01*
X1032378Y370481D01*
X1035130Y370119D01*
X1037881Y370481D01*
X1040445Y371543D01*
X1042647Y373233D01*
X1044337Y375435D01*
X1045399Y377999D01*
X1045761Y380750D01*
Y382750D01*
X1045399Y385502D01*
X1044337Y388065D01*
X1042647Y390267D01*
X1040445Y391957D01*
X1037881Y393019D01*
X1035130Y393381D01*
D02*
G37*
G36*
X1009730D02*
X1006979Y393019D01*
X1004415Y391957D01*
X1002213Y390267D01*
X1000523Y388065D01*
X999461Y385502D01*
X999099Y382750D01*
Y380750D01*
X999461Y377999D01*
X1000523Y375435D01*
X1002213Y373233D01*
X1004415Y371543D01*
X1006979Y370481D01*
X1009730Y370119D01*
X1012482Y370481D01*
X1015045Y371543D01*
X1017247Y373233D01*
X1018937Y375435D01*
X1019999Y377999D01*
X1020361Y380750D01*
Y382750D01*
X1019999Y385502D01*
X1018937Y388065D01*
X1017247Y390267D01*
X1015045Y391957D01*
X1012482Y393019D01*
X1009730Y393381D01*
D02*
G37*
G36*
X984330D02*
X981579Y393019D01*
X979015Y391957D01*
X976813Y390267D01*
X975123Y388065D01*
X974061Y385502D01*
X973699Y382750D01*
Y380750D01*
X974061Y377999D01*
X975123Y375435D01*
X976813Y373233D01*
X979015Y371543D01*
X981579Y370481D01*
X984330Y370119D01*
X987082Y370481D01*
X989645Y371543D01*
X991847Y373233D01*
X993537Y375435D01*
X994599Y377999D01*
X994961Y380750D01*
Y382750D01*
X994599Y385502D01*
X993537Y388065D01*
X991847Y390267D01*
X989645Y391957D01*
X987082Y393019D01*
X984330Y393381D01*
D02*
G37*
G36*
X725170Y369890D02*
Y361950D01*
X733110D01*
X732496Y364241D01*
X731282Y366344D01*
X729564Y368062D01*
X727461Y369276D01*
X725170Y369890D01*
D02*
G37*
G36*
X722630D02*
X720339Y369276D01*
X718236Y368062D01*
X716518Y366344D01*
X715304Y364241D01*
X714690Y361950D01*
X722630D01*
Y369890D01*
D02*
G37*
G36*
X733110Y359410D02*
X725170D01*
Y351470D01*
X727461Y352084D01*
X729564Y353298D01*
X731282Y355016D01*
X732496Y357119D01*
X733110Y359410D01*
D02*
G37*
G36*
X722630D02*
X714690D01*
X715304Y357119D01*
X716518Y355016D01*
X718236Y353298D01*
X720339Y352084D01*
X722630Y351470D01*
Y359410D01*
D02*
G37*
G36*
X994870Y367890D02*
X973790D01*
Y344810D01*
X994870D01*
Y367890D01*
D02*
G37*
G36*
X1441530Y367981D02*
X1438779Y367619D01*
X1436215Y366557D01*
X1434013Y364867D01*
X1432323Y362665D01*
X1431261Y360102D01*
X1430899Y357350D01*
Y355350D01*
X1431261Y352598D01*
X1432323Y350035D01*
X1434013Y347833D01*
X1436215Y346143D01*
X1438779Y345081D01*
X1441530Y344719D01*
X1444281Y345081D01*
X1446846Y346143D01*
X1449047Y347833D01*
X1450737Y350035D01*
X1451799Y352598D01*
X1452161Y355350D01*
Y357350D01*
X1451799Y360102D01*
X1450737Y362665D01*
X1449047Y364867D01*
X1446846Y366557D01*
X1444281Y367619D01*
X1441530Y367981D01*
D02*
G37*
G36*
X1416130D02*
X1413378Y367619D01*
X1410815Y366557D01*
X1408613Y364867D01*
X1406923Y362665D01*
X1405861Y360102D01*
X1405499Y357350D01*
Y355350D01*
X1405861Y352598D01*
X1406923Y350035D01*
X1408613Y347833D01*
X1410815Y346143D01*
X1413378Y345081D01*
X1416130Y344719D01*
X1418882Y345081D01*
X1421445Y346143D01*
X1423647Y347833D01*
X1425337Y350035D01*
X1426399Y352598D01*
X1426761Y355350D01*
Y357350D01*
X1426399Y360102D01*
X1425337Y362665D01*
X1423647Y364867D01*
X1421445Y366557D01*
X1418882Y367619D01*
X1416130Y367981D01*
D02*
G37*
G36*
X1390730D02*
X1387979Y367619D01*
X1385415Y366557D01*
X1383213Y364867D01*
X1381523Y362665D01*
X1380461Y360102D01*
X1380099Y357350D01*
Y355350D01*
X1380461Y352598D01*
X1381523Y350035D01*
X1383213Y347833D01*
X1385415Y346143D01*
X1387979Y345081D01*
X1390730Y344719D01*
X1393481Y345081D01*
X1396046Y346143D01*
X1398247Y347833D01*
X1399937Y350035D01*
X1400999Y352598D01*
X1401361Y355350D01*
Y357350D01*
X1400999Y360102D01*
X1399937Y362665D01*
X1398247Y364867D01*
X1396046Y366557D01*
X1393481Y367619D01*
X1390730Y367981D01*
D02*
G37*
G36*
X1365330D02*
X1362578Y367619D01*
X1360015Y366557D01*
X1357813Y364867D01*
X1356123Y362665D01*
X1355061Y360102D01*
X1354699Y357350D01*
Y355350D01*
X1355061Y352598D01*
X1356123Y350035D01*
X1357813Y347833D01*
X1360015Y346143D01*
X1362578Y345081D01*
X1365330Y344719D01*
X1368082Y345081D01*
X1370645Y346143D01*
X1372847Y347833D01*
X1374537Y350035D01*
X1375599Y352598D01*
X1375961Y355350D01*
Y357350D01*
X1375599Y360102D01*
X1374537Y362665D01*
X1372847Y364867D01*
X1370645Y366557D01*
X1368082Y367619D01*
X1365330Y367981D01*
D02*
G37*
G36*
X1339930D02*
X1337178Y367619D01*
X1334615Y366557D01*
X1332413Y364867D01*
X1330723Y362665D01*
X1329661Y360102D01*
X1329299Y357350D01*
Y355350D01*
X1329661Y352598D01*
X1330723Y350035D01*
X1332413Y347833D01*
X1334615Y346143D01*
X1337178Y345081D01*
X1339930Y344719D01*
X1342681Y345081D01*
X1345246Y346143D01*
X1347447Y347833D01*
X1349137Y350035D01*
X1350199Y352598D01*
X1350561Y355350D01*
Y357350D01*
X1350199Y360102D01*
X1349137Y362665D01*
X1347447Y364867D01*
X1345246Y366557D01*
X1342681Y367619D01*
X1339930Y367981D01*
D02*
G37*
G36*
X1314530D02*
X1311779Y367619D01*
X1309215Y366557D01*
X1307013Y364867D01*
X1305323Y362665D01*
X1304261Y360102D01*
X1303899Y357350D01*
Y355350D01*
X1304261Y352598D01*
X1305323Y350035D01*
X1307013Y347833D01*
X1309215Y346143D01*
X1311779Y345081D01*
X1314530Y344719D01*
X1317281Y345081D01*
X1319845Y346143D01*
X1322047Y347833D01*
X1323737Y350035D01*
X1324799Y352598D01*
X1325161Y355350D01*
Y357350D01*
X1324799Y360102D01*
X1323737Y362665D01*
X1322047Y364867D01*
X1319845Y366557D01*
X1317281Y367619D01*
X1314530Y367981D01*
D02*
G37*
G36*
X1289130D02*
X1286378Y367619D01*
X1283815Y366557D01*
X1281613Y364867D01*
X1279923Y362665D01*
X1278861Y360102D01*
X1278499Y357350D01*
Y355350D01*
X1278861Y352598D01*
X1279923Y350035D01*
X1281613Y347833D01*
X1283815Y346143D01*
X1286378Y345081D01*
X1289130Y344719D01*
X1291882Y345081D01*
X1294445Y346143D01*
X1296647Y347833D01*
X1298337Y350035D01*
X1299399Y352598D01*
X1299761Y355350D01*
Y357350D01*
X1299399Y360102D01*
X1298337Y362665D01*
X1296647Y364867D01*
X1294445Y366557D01*
X1291882Y367619D01*
X1289130Y367981D01*
D02*
G37*
G36*
X1263730D02*
X1260978Y367619D01*
X1258415Y366557D01*
X1256213Y364867D01*
X1254523Y362665D01*
X1253461Y360102D01*
X1253099Y357350D01*
Y355350D01*
X1253461Y352598D01*
X1254523Y350035D01*
X1256213Y347833D01*
X1258415Y346143D01*
X1260978Y345081D01*
X1263730Y344719D01*
X1266481Y345081D01*
X1269045Y346143D01*
X1271247Y347833D01*
X1272937Y350035D01*
X1273999Y352598D01*
X1274361Y355350D01*
Y357350D01*
X1273999Y360102D01*
X1272937Y362665D01*
X1271247Y364867D01*
X1269045Y366557D01*
X1266481Y367619D01*
X1263730Y367981D01*
D02*
G37*
G36*
X1238330D02*
X1235579Y367619D01*
X1233015Y366557D01*
X1230813Y364867D01*
X1229123Y362665D01*
X1228061Y360102D01*
X1227699Y357350D01*
Y355350D01*
X1228061Y352598D01*
X1229123Y350035D01*
X1230813Y347833D01*
X1233015Y346143D01*
X1235579Y345081D01*
X1238330Y344719D01*
X1241081Y345081D01*
X1243645Y346143D01*
X1245847Y347833D01*
X1247537Y350035D01*
X1248599Y352598D01*
X1248961Y355350D01*
Y357350D01*
X1248599Y360102D01*
X1247537Y362665D01*
X1245847Y364867D01*
X1243645Y366557D01*
X1241081Y367619D01*
X1238330Y367981D01*
D02*
G37*
G36*
X1212930D02*
X1210179Y367619D01*
X1207615Y366557D01*
X1205413Y364867D01*
X1203723Y362665D01*
X1202661Y360102D01*
X1202299Y357350D01*
Y355350D01*
X1202661Y352598D01*
X1203723Y350035D01*
X1205413Y347833D01*
X1207615Y346143D01*
X1210179Y345081D01*
X1212930Y344719D01*
X1215682Y345081D01*
X1218245Y346143D01*
X1220447Y347833D01*
X1222137Y350035D01*
X1223199Y352598D01*
X1223561Y355350D01*
Y357350D01*
X1223199Y360102D01*
X1222137Y362665D01*
X1220447Y364867D01*
X1218245Y366557D01*
X1215682Y367619D01*
X1212930Y367981D01*
D02*
G37*
G36*
X1187530D02*
X1184779Y367619D01*
X1182215Y366557D01*
X1180013Y364867D01*
X1178323Y362665D01*
X1177261Y360102D01*
X1176899Y357350D01*
Y355350D01*
X1177261Y352598D01*
X1178323Y350035D01*
X1180013Y347833D01*
X1182215Y346143D01*
X1184779Y345081D01*
X1187530Y344719D01*
X1190282Y345081D01*
X1192846Y346143D01*
X1195047Y347833D01*
X1196737Y350035D01*
X1197799Y352598D01*
X1198161Y355350D01*
Y357350D01*
X1197799Y360102D01*
X1196737Y362665D01*
X1195047Y364867D01*
X1192846Y366557D01*
X1190282Y367619D01*
X1187530Y367981D01*
D02*
G37*
G36*
X1162130D02*
X1159379Y367619D01*
X1156815Y366557D01*
X1154613Y364867D01*
X1152923Y362665D01*
X1151861Y360102D01*
X1151499Y357350D01*
Y355350D01*
X1151861Y352598D01*
X1152923Y350035D01*
X1154613Y347833D01*
X1156815Y346143D01*
X1159379Y345081D01*
X1162130Y344719D01*
X1164882Y345081D01*
X1167446Y346143D01*
X1169647Y347833D01*
X1171337Y350035D01*
X1172399Y352598D01*
X1172761Y355350D01*
Y357350D01*
X1172399Y360102D01*
X1171337Y362665D01*
X1169647Y364867D01*
X1167446Y366557D01*
X1164882Y367619D01*
X1162130Y367981D01*
D02*
G37*
G36*
X1136730D02*
X1133979Y367619D01*
X1131415Y366557D01*
X1129213Y364867D01*
X1127523Y362665D01*
X1126461Y360102D01*
X1126099Y357350D01*
Y355350D01*
X1126461Y352598D01*
X1127523Y350035D01*
X1129213Y347833D01*
X1131415Y346143D01*
X1133979Y345081D01*
X1136730Y344719D01*
X1139482Y345081D01*
X1142046Y346143D01*
X1144247Y347833D01*
X1145937Y350035D01*
X1146999Y352598D01*
X1147361Y355350D01*
Y357350D01*
X1146999Y360102D01*
X1145937Y362665D01*
X1144247Y364867D01*
X1142046Y366557D01*
X1139482Y367619D01*
X1136730Y367981D01*
D02*
G37*
G36*
X1111330D02*
X1108578Y367619D01*
X1106015Y366557D01*
X1103813Y364867D01*
X1102123Y362665D01*
X1101061Y360102D01*
X1100699Y357350D01*
Y355350D01*
X1101061Y352598D01*
X1102123Y350035D01*
X1103813Y347833D01*
X1106015Y346143D01*
X1108578Y345081D01*
X1111330Y344719D01*
X1114081Y345081D01*
X1116646Y346143D01*
X1118847Y347833D01*
X1120537Y350035D01*
X1121599Y352598D01*
X1121961Y355350D01*
Y357350D01*
X1121599Y360102D01*
X1120537Y362665D01*
X1118847Y364867D01*
X1116646Y366557D01*
X1114081Y367619D01*
X1111330Y367981D01*
D02*
G37*
G36*
X1085930D02*
X1083178Y367619D01*
X1080615Y366557D01*
X1078413Y364867D01*
X1076723Y362665D01*
X1075661Y360102D01*
X1075299Y357350D01*
Y355350D01*
X1075661Y352598D01*
X1076723Y350035D01*
X1078413Y347833D01*
X1080615Y346143D01*
X1083178Y345081D01*
X1085930Y344719D01*
X1088681Y345081D01*
X1091245Y346143D01*
X1093447Y347833D01*
X1095137Y350035D01*
X1096199Y352598D01*
X1096561Y355350D01*
Y357350D01*
X1096199Y360102D01*
X1095137Y362665D01*
X1093447Y364867D01*
X1091245Y366557D01*
X1088681Y367619D01*
X1085930Y367981D01*
D02*
G37*
G36*
X1060530D02*
X1057778Y367619D01*
X1055215Y366557D01*
X1053013Y364867D01*
X1051323Y362665D01*
X1050261Y360102D01*
X1049899Y357350D01*
Y355350D01*
X1050261Y352598D01*
X1051323Y350035D01*
X1053013Y347833D01*
X1055215Y346143D01*
X1057778Y345081D01*
X1060530Y344719D01*
X1063281Y345081D01*
X1065845Y346143D01*
X1068047Y347833D01*
X1069737Y350035D01*
X1070799Y352598D01*
X1071161Y355350D01*
Y357350D01*
X1070799Y360102D01*
X1069737Y362665D01*
X1068047Y364867D01*
X1065845Y366557D01*
X1063281Y367619D01*
X1060530Y367981D01*
D02*
G37*
G36*
X1035130D02*
X1032378Y367619D01*
X1029815Y366557D01*
X1027613Y364867D01*
X1025923Y362665D01*
X1024861Y360102D01*
X1024499Y357350D01*
Y355350D01*
X1024861Y352598D01*
X1025923Y350035D01*
X1027613Y347833D01*
X1029815Y346143D01*
X1032378Y345081D01*
X1035130Y344719D01*
X1037881Y345081D01*
X1040445Y346143D01*
X1042647Y347833D01*
X1044337Y350035D01*
X1045399Y352598D01*
X1045761Y355350D01*
Y357350D01*
X1045399Y360102D01*
X1044337Y362665D01*
X1042647Y364867D01*
X1040445Y366557D01*
X1037881Y367619D01*
X1035130Y367981D01*
D02*
G37*
G36*
X1009730D02*
X1006979Y367619D01*
X1004415Y366557D01*
X1002213Y364867D01*
X1000523Y362665D01*
X999461Y360102D01*
X999099Y357350D01*
Y355350D01*
X999461Y352598D01*
X1000523Y350035D01*
X1002213Y347833D01*
X1004415Y346143D01*
X1006979Y345081D01*
X1009730Y344719D01*
X1012482Y345081D01*
X1015045Y346143D01*
X1017247Y347833D01*
X1018937Y350035D01*
X1019999Y352598D01*
X1020361Y355350D01*
Y357350D01*
X1019999Y360102D01*
X1018937Y362665D01*
X1017247Y364867D01*
X1015045Y366557D01*
X1012482Y367619D01*
X1009730Y367981D01*
D02*
G37*
%LPD*%
D27*
X1441530Y915150D02*
D03*
X1085930Y432550D02*
D03*
X1314530D02*
D03*
X984330Y356350D02*
D03*
Y965950D02*
D03*
D28*
X1416130Y915150D02*
D03*
X1390730D02*
D03*
X1365330D02*
D03*
X1339930D02*
D03*
X1314530D02*
D03*
X1289130D02*
D03*
X1263730D02*
D03*
X1111330Y432550D02*
D03*
X1136730D02*
D03*
X1162130D02*
D03*
X1187530D02*
D03*
X1212930D02*
D03*
X1238330D02*
D03*
X1263730D02*
D03*
X1441530D02*
D03*
X1416130D02*
D03*
X1390730D02*
D03*
X1365330D02*
D03*
X1339930D02*
D03*
X1441530Y381750D02*
D03*
Y356350D02*
D03*
X1416130Y381750D02*
D03*
Y356350D02*
D03*
X1390730Y381750D02*
D03*
Y356350D02*
D03*
X1365330Y381750D02*
D03*
Y356350D02*
D03*
X1339930Y381750D02*
D03*
Y356350D02*
D03*
X1314530Y381750D02*
D03*
Y356350D02*
D03*
X1289130Y381750D02*
D03*
Y356350D02*
D03*
X1263730Y381750D02*
D03*
Y356350D02*
D03*
X1238330Y381750D02*
D03*
Y356350D02*
D03*
X1212930Y381750D02*
D03*
Y356350D02*
D03*
X1187530Y381750D02*
D03*
Y356350D02*
D03*
X1162130Y381750D02*
D03*
Y356350D02*
D03*
X1136730Y381750D02*
D03*
Y356350D02*
D03*
X1111330Y381750D02*
D03*
Y356350D02*
D03*
X1085930Y381750D02*
D03*
Y356350D02*
D03*
X1060530Y381750D02*
D03*
Y356350D02*
D03*
X1035130Y381750D02*
D03*
Y356350D02*
D03*
X1009730Y381750D02*
D03*
Y356350D02*
D03*
X984330Y381750D02*
D03*
X1441530Y991350D02*
D03*
Y965950D02*
D03*
X1416130Y991350D02*
D03*
Y965950D02*
D03*
X1390730Y991350D02*
D03*
Y965950D02*
D03*
X1365330Y991350D02*
D03*
Y965950D02*
D03*
X1339930Y991350D02*
D03*
Y965950D02*
D03*
X1314530Y991350D02*
D03*
Y965950D02*
D03*
X1289130Y991350D02*
D03*
Y965950D02*
D03*
X1263730Y991350D02*
D03*
Y965950D02*
D03*
X1238330Y991350D02*
D03*
Y965950D02*
D03*
X1212930Y991350D02*
D03*
Y965950D02*
D03*
X1187530Y991350D02*
D03*
Y965950D02*
D03*
X1162130Y991350D02*
D03*
Y965950D02*
D03*
X1136730Y991350D02*
D03*
Y965950D02*
D03*
X1111330Y991350D02*
D03*
Y965950D02*
D03*
X1085930Y991350D02*
D03*
Y965950D02*
D03*
X1060530Y991350D02*
D03*
Y965950D02*
D03*
X1035130Y991350D02*
D03*
Y965950D02*
D03*
X1009730Y991350D02*
D03*
Y965950D02*
D03*
X984330Y991350D02*
D03*
X1223130Y915150D02*
D03*
X1197730D02*
D03*
X1172330D02*
D03*
X1146930D02*
D03*
X1121530D02*
D03*
X1096130D02*
D03*
X1070730D02*
D03*
X1045330D02*
D03*
X1019930D02*
D03*
X994530D02*
D03*
D29*
X723940Y703970D02*
D03*
Y729370D02*
D03*
Y754770D02*
D03*
D30*
Y780170D02*
D03*
D31*
X850900Y421640D02*
D03*
X774700D02*
D03*
X853440Y963930D02*
D03*
Y887730D02*
D03*
X899160Y963930D02*
D03*
Y887730D02*
D03*
D32*
X889000Y421640D02*
D03*
D33*
X914400D02*
D03*
D34*
X810890Y962660D02*
D03*
X811210Y887730D02*
D03*
D35*
X790890Y962660D02*
D03*
X770890D02*
D03*
X750890D02*
D03*
X791210Y887730D02*
D03*
X771210D02*
D03*
X751210D02*
D03*
D36*
X698500Y360680D02*
D03*
X723900D02*
D03*
X749300D02*
D03*
D37*
X774700D02*
D03*
D38*
Y421640D02*
Y705010D01*
X724940Y754770D02*
X774700Y705010D01*
X698500Y471170D02*
X735330Y508000D01*
X723940Y703970D02*
X735330Y692580D01*
Y508000D02*
Y692580D01*
X628650Y774692D02*
Y842010D01*
X615950Y769431D02*
X681411Y703970D01*
X615950Y847271D02*
X643709Y875030D01*
X628650Y842010D02*
X646430Y859790D01*
X743946D01*
X643709Y875030D02*
X737471D01*
X615950Y769431D02*
Y847271D01*
X706120Y762400D02*
X712632Y755887D01*
X706120Y762400D02*
Y825500D01*
X727710Y847090D01*
X751246D01*
X628650Y774692D02*
X673972Y729370D01*
X737471Y875030D02*
X750171Y887730D01*
X698500Y360680D02*
Y471170D01*
X847090Y863600D02*
X853440Y869950D01*
X797162Y863600D02*
X847090D01*
X791210Y869552D02*
X797162Y863600D01*
X791210Y869552D02*
Y887054D01*
X853440Y869950D02*
Y887730D01*
X851928D02*
X899160D01*
X751246Y847090D02*
X791210Y887054D01*
X791050Y887890D02*
X791210Y887730D01*
X791050Y887890D02*
Y962500D01*
X743946Y859790D02*
X771210Y887054D01*
Y887730D01*
X842010Y462280D02*
X994410D01*
X1040760Y415930D01*
X801370Y421640D02*
X842010Y462280D01*
X1040760Y415930D02*
X1168600D01*
X774700Y421640D02*
X801370D01*
X774700Y360680D02*
Y421640D01*
X1168600Y415930D02*
X1181300Y428630D01*
X1183030D01*
X1186950Y432550D01*
X1187530D01*
X712632Y755887D02*
X722823D01*
X723940Y754770D01*
X724940D01*
X790890Y962660D02*
X791050Y962500D01*
X850900Y421640D02*
X889000D01*
X749300Y360680D02*
Y705010D01*
X724940Y729370D02*
X749300Y705010D01*
X723940Y729370D02*
X724940D01*
X681411Y703970D02*
X723940D01*
X750171Y887730D02*
X751210D01*
X673972Y729370D02*
X723940D01*
X863600Y993140D02*
X891741Y964999D01*
X750890Y963336D02*
X780694Y993140D01*
X863600D01*
X898091Y964999D02*
X899160Y963930D01*
X891741Y964999D02*
X898091D01*
X899160Y963930D02*
X946750D01*
X844694Y977280D02*
X852371Y969604D01*
X784834Y977280D02*
X844694D01*
X852371Y964999D02*
Y969604D01*
Y964999D02*
X927340Y890030D01*
X770890Y963336D02*
X784834Y977280D01*
X946750Y963930D02*
X994530Y916150D01*
Y915150D02*
Y916150D01*
X750890Y962660D02*
X751050Y962500D01*
Y887890D02*
Y962500D01*
Y887890D02*
X751210Y887730D01*
X771050Y887890D02*
Y962500D01*
X770890Y962660D02*
X771050Y962500D01*
Y887890D02*
X771210Y887730D01*
X770890Y962660D02*
Y963336D01*
X927340Y890030D02*
X995810D01*
X1019930Y914150D01*
Y915150D01*
X750890Y962660D02*
Y963336D01*
M02*
