G04*
G04 #@! TF.GenerationSoftware,Altium Limited,Altium Designer,23.3.1 (30)*
G04*
G04 Layer_Color=8388736*
%FSLAX44Y44*%
%MOMM*%
G71*
G04*
G04 #@! TF.SameCoordinates,789F5575-398E-4CD6-B036-2A59C815F105*
G04*
G04*
G04 #@! TF.FilePolarity,Negative*
G04*
G01*
G75*
%ADD15C,0.2032*%
%ADD16R,1.8032X2.0032*%
%ADD17O,1.8032X2.0032*%
%ADD18O,2.0032X1.8032*%
G04:AMPARAMS|DCode=19|XSize=1.8032mm|YSize=2.0032mm|CornerRadius=0.5016mm|HoleSize=0mm|Usage=FLASHONLY|Rotation=270.000|XOffset=0mm|YOffset=0mm|HoleType=Round|Shape=RoundedRectangle|*
%AMROUNDEDRECTD19*
21,1,1.8032,1.0000,0,0,270.0*
21,1,0.8000,2.0032,0,0,270.0*
1,1,1.0032,-0.5000,-0.4000*
1,1,1.0032,-0.5000,0.4000*
1,1,1.0032,0.5000,0.4000*
1,1,1.0032,0.5000,-0.4000*
%
%ADD19ROUNDEDRECTD19*%
%ADD20C,1.7780*%
%ADD21R,1.8542X1.8542*%
%ADD22C,1.8542*%
G04:AMPARAMS|DCode=23|XSize=1.6032mm|YSize=1.6032mm|CornerRadius=0.4516mm|HoleSize=0mm|Usage=FLASHONLY|Rotation=180.000|XOffset=0mm|YOffset=0mm|HoleType=Round|Shape=RoundedRectangle|*
%AMROUNDEDRECTD23*
21,1,1.6032,0.7000,0,0,180.0*
21,1,0.7000,1.6032,0,0,180.0*
1,1,0.9032,-0.3500,0.3500*
1,1,0.9032,0.3500,0.3500*
1,1,0.9032,0.3500,-0.3500*
1,1,0.9032,-0.3500,-0.3500*
%
%ADD23ROUNDEDRECTD23*%
%ADD24C,1.6032*%
%ADD25C,1.5402*%
%ADD26R,1.5402X1.5402*%
D15*
X958930Y915150D02*
D03*
X1466930Y762750D02*
D03*
X946230Y432550D02*
D03*
X1074540Y710170D02*
D03*
X800140Y754770D02*
D03*
X666940Y506170D02*
D03*
X1420940D02*
D03*
X666940Y820170D02*
D03*
X1420940D02*
D03*
D16*
X1441530Y915150D02*
D03*
X1085930Y432550D02*
D03*
X1314530D02*
D03*
X984330Y356350D02*
D03*
Y965950D02*
D03*
D17*
X1416130Y915150D02*
D03*
X1390730D02*
D03*
X1365330D02*
D03*
X1339930D02*
D03*
X1314530D02*
D03*
X1289130D02*
D03*
X1263730D02*
D03*
X1111330Y432550D02*
D03*
X1136730D02*
D03*
X1162130D02*
D03*
X1187530D02*
D03*
X1212930D02*
D03*
X1238330D02*
D03*
X1263730D02*
D03*
X1441530D02*
D03*
X1416130D02*
D03*
X1390730D02*
D03*
X1365330D02*
D03*
X1339930D02*
D03*
X1441530Y381750D02*
D03*
Y356350D02*
D03*
X1416130Y381750D02*
D03*
Y356350D02*
D03*
X1390730Y381750D02*
D03*
Y356350D02*
D03*
X1365330Y381750D02*
D03*
Y356350D02*
D03*
X1339930Y381750D02*
D03*
Y356350D02*
D03*
X1314530Y381750D02*
D03*
Y356350D02*
D03*
X1289130Y381750D02*
D03*
Y356350D02*
D03*
X1263730Y381750D02*
D03*
Y356350D02*
D03*
X1238330Y381750D02*
D03*
Y356350D02*
D03*
X1212930Y381750D02*
D03*
Y356350D02*
D03*
X1187530Y381750D02*
D03*
Y356350D02*
D03*
X1162130Y381750D02*
D03*
Y356350D02*
D03*
X1136730Y381750D02*
D03*
Y356350D02*
D03*
X1111330Y381750D02*
D03*
Y356350D02*
D03*
X1085930Y381750D02*
D03*
Y356350D02*
D03*
X1060530Y381750D02*
D03*
Y356350D02*
D03*
X1035130Y381750D02*
D03*
Y356350D02*
D03*
X1009730Y381750D02*
D03*
Y356350D02*
D03*
X984330Y381750D02*
D03*
X1441530Y991350D02*
D03*
Y965950D02*
D03*
X1416130Y991350D02*
D03*
Y965950D02*
D03*
X1390730Y991350D02*
D03*
Y965950D02*
D03*
X1365330Y991350D02*
D03*
Y965950D02*
D03*
X1339930Y991350D02*
D03*
Y965950D02*
D03*
X1314530Y991350D02*
D03*
Y965950D02*
D03*
X1289130Y991350D02*
D03*
Y965950D02*
D03*
X1263730Y991350D02*
D03*
Y965950D02*
D03*
X1238330Y991350D02*
D03*
Y965950D02*
D03*
X1212930Y991350D02*
D03*
Y965950D02*
D03*
X1187530Y991350D02*
D03*
Y965950D02*
D03*
X1162130Y991350D02*
D03*
Y965950D02*
D03*
X1136730Y991350D02*
D03*
Y965950D02*
D03*
X1111330Y991350D02*
D03*
Y965950D02*
D03*
X1085930Y991350D02*
D03*
Y965950D02*
D03*
X1060530Y991350D02*
D03*
Y965950D02*
D03*
X1035130Y991350D02*
D03*
Y965950D02*
D03*
X1009730Y991350D02*
D03*
Y965950D02*
D03*
X984330Y991350D02*
D03*
X1223130Y915150D02*
D03*
X1197730D02*
D03*
X1172330D02*
D03*
X1146930D02*
D03*
X1121530D02*
D03*
X1096130D02*
D03*
X1070730D02*
D03*
X1045330D02*
D03*
X1019930D02*
D03*
X994530D02*
D03*
D18*
X723940Y703970D02*
D03*
Y729370D02*
D03*
Y754770D02*
D03*
D19*
Y780170D02*
D03*
D20*
X850900Y421640D02*
D03*
X774700D02*
D03*
X853440Y963930D02*
D03*
Y887730D02*
D03*
X899160Y963930D02*
D03*
Y887730D02*
D03*
D21*
X889000Y421640D02*
D03*
D22*
X914400D02*
D03*
D23*
X810890Y962660D02*
D03*
X811210Y887730D02*
D03*
D24*
X790890Y962660D02*
D03*
X770890D02*
D03*
X750890D02*
D03*
X791210Y887730D02*
D03*
X771210D02*
D03*
X751210D02*
D03*
D25*
X698500Y360680D02*
D03*
X723900D02*
D03*
X749300D02*
D03*
D26*
X774700D02*
D03*
M02*
